<?xml version="1.0" encoding="UTF-8" standalone="no"?>
<svg
   version="1.0"
   width="21893.502pt"
   height="2400pt"
   viewBox="0 0 21893.503 2400"
   preserveAspectRatio="xMidYMid"
   id="svg20"
   sodipodi:docname="Altinzade.svg"
   inkscape:version="1.3 (0e150ed, 2023-07-21)"
   xmlns:inkscape="http://www.inkscape.org/namespaces/inkscape"
   xmlns:sodipodi="http://sodipodi.sourceforge.net/DTD/sodipodi-0.dtd"
   xmlns="http://www.w3.org/2000/svg"
   xmlns:svg="http://www.w3.org/2000/svg">
  <defs
     id="defs20" />
  <sodipodi:namedview
     id="namedview20"
     pagecolor="#505050"
     bordercolor="#ffffff"
     borderopacity="1"
     inkscape:showpageshadow="0"
     inkscape:pageopacity="0"
     inkscape:pagecheckerboard="1"
     inkscape:deskcolor="#505050"
     inkscape:document-units="pt"
     inkscape:zoom="0.015925766"
     inkscape:cx="14159.445"
     inkscape:cy="1381.4092"
     inkscape:window-width="1312"
     inkscape:window-height="431"
     inkscape:window-x="0"
     inkscape:window-y="25"
     inkscape:window-maximized="0"
     inkscape:current-layer="g20" />
  <g
     transform="matrix(2.2849083,0,0,-2.2849083,-2863.7198,1688.5472)"
     fill="#000000"
     stroke="none"
     id="g20"
     style="fill:#ffffff">
    <path
       d="m 2073.2994,701.96296 c -39.9185,-19.25952 -70.9629,-38.51864 -70.9629,-42.96282 0,-2.9631 17.7377,-4.44477 41.3924,-2.9631 l 39.9197,2.9631 4.4328,-325.92593 c 4.4357,-317.036925 2.9518,-325.9259407 -28.0905,-351.111124 -31.0428,-26.666515 -28.0876,-26.666515 69.4775,-25.185258 97.5717,0 100.5319,1.481625 69.4747,23.704169 -33.9903,22.2217144 -33.9903,26.6662723 -33.9903,383.703373 0,197.03707 -4.436,362.9628 -10.3461,365.92624 -7.3983,4.44335 -42.874,-8.88902 -81.3073,-28.14865 z"
       id="path1"
       style="fill:#ffffff;stroke-width:1.47948" />
    <path
       d="m 4704.6447,707.8886 c -69.4763,-29.62904 -100.5186,-68.148 -39.9101,-48.88846 47.3051,14.81452 57.6516,-13.33369 57.6516,-158.5186 V 373.07409 l -84.2636,5.92598 c -153.738,13.33353 -258.6945,-82.96293 -258.6945,-229.62986 1.4736,-96.295706 35.4788,-161.481244 101.9955,-188.147781 62.0977,-26.666875 116.7897,-17.777864 189.2271,31.1110983 50.2585,35.5550267 51.7355,35.5550267 51.7355,5.9259012 0,-42.9628575 38.4353,-50.3704335 107.9155,-19.2593245 l 62.09,28.1481653 -51.7398,7.4072357 -51.7436,7.407412 -7.3912,358.518653 L 4774.1254,739 Z m -19.2171,-389.62897 c 32.5282,-31.11136 36.9586,-48.88946 36.9586,-146.66696 0,-100.741144 -2.9543,-112.592488 -38.4346,-140.740707 -54.6942,-42.962997 -90.1744,-50.369966 -140.4303,-29.6296003 -56.1751,22.2224553 -90.183,88.8887523 -90.183,176.2954073 0,71.11218 32.5259,154.07442 65.0446,167.40791 53.2201,22.22253 133.0494,8.88858 167.0447,-26.66605 z"
       id="path2"
       style="fill:#ffffff;stroke-width:1.47948" />
    <path
       d="m 9597.7478,702.29874 c -39.9531,-19.27714 -71.0251,-38.55458 -71.0251,-43.00284 0,-2.96569 17.7562,-4.44899 41.4338,-2.96569 l 39.9476,2.96569 4.4355,-326.23115 c 4.4437,-317.333742 2.9658,-326.2310986 -28.1099,-351.439844 -31.0736,-26.691477 -28.1135,-26.691477 69.5461,-26.691477 96.1772,0 99.1384,1.482639 68.0652,23.725723 -32.5587,22.24307409 -32.5587,26.6915425 -32.5587,384.062738 0,198.70463 -4.4367,364.78571 -10.3529,367.75179 -7.3974,4.44797 -42.9071,-8.8973 -81.3816,-28.17494 z"
       id="path3"
       style="fill:#ffffff;stroke-width:1.48098" />
    <path
       d="m 10381.273,701.96296 c -39.915,-19.25952 -70.952,-38.51864 -70.952,-42.96282 0,-2.9631 17.734,-4.44477 41.388,-2.9631 l 39.914,2.9631 4.429,-325.92593 c 4.438,-317.036925 2.96,-325.9259407 -28.083,-351.111124 -31.043,-26.666515 -28.093,-26.666515 69.478,-26.666515 96.092,0 99.052,1.481257 67.997,23.703533 -26.601,17.7776504 -32.509,37.037181 -32.509,103.703501 0,60.741455 5.908,82.962935 23.643,90.370875 25.13,8.88779 39.921,-4.44511 119.746,-119.999976 38.433,-54.8150755 39.912,-57.7781893 11.822,-77.036747 -25.129,-17.778304 -14.787,-20.741186 90.181,-19.259929 h 116.778 l -48.784,25.185258 c -29.562,14.8146684 -84.257,71.111418 -131.564,136.296344 l -81.307,111.11138 48.783,41.48112 c 28.088,22.22253 82.783,53.33343 124.174,69.63045 l 73.92,28.14757 h -125.657 c -90.176,0 -116.787,-4.44458 -91.653,-13.33388 17.735,-7.40737 32.523,-20.74033 32.523,-28.14742 0,-13.33388 -137.48,-134.8154 -153.745,-134.8154 -4.436,0 -8.86,119.99998 -8.86,265.18499 0,146.66709 -4.442,269.62993 -10.356,272.59337 -7.394,4.44335 -42.87,-8.88902 -81.306,-28.14865 z"
       id="path4"
       style="fill:#ffffff;stroke-width:1.47948" />
    <path
       d="m 1572.1597,567.14863 c -16.266,-40.00039 -63.5701,-151.11154 -104.9618,-248.889 C 1359.2836,59.000182 1326.7627,1.2223627 1280.943,-19.518003 c -39.9187,-16.29667 -39.9187,-16.29667 22.164,-22.222544 34.0059,-2.962882 94.6152,-2.962882 133.0474,0 l 70.9553,4.444248 -51.7367,16.296403 c -67.9996,19.2593245 -72.4409,57.77748 -22.1705,177.777406 l 39.9112,94.81502 h 124.1758 125.6541 l 50.2613,-112.59242 c 28.088,-62.222413 51.7398,-121.481474 51.7398,-131.8518407 0,-11.8519546 -17.7365,-26.6662723 -39.911,-34.0740943 -34.0027,-11.851746 -16.2617,-16.296347 90.1709,-16.296347 131.5752,-1.481257 141.9214,2.962972 79.8299,34.0740164 -23.6488,11.851867 -78.3501,112.5928856 -181.8296,330.3706156 -81.3068,173.3326 -153.74,314.0742 -159.6574,315.55496 -5.908,0 -25.1245,-31.11098 -41.3878,-69.62879 z m 79.8238,-170.37118 53.2196,-115.55493 h -109.3909 c -107.9182,0 -109.3986,0 -97.5727,34.07405 32.5272,82.96225 91.6549,207.40747 96.0902,201.48088 2.9598,-2.96272 29.566,-57.77754 57.6538,-120 z"
       id="path5"
       style="fill:#ffffff;stroke-width:1.47948" />
    <path
       d="m 5624.1435,611.59249 c 68.0057,-11.85124 73.9176,-37.03678 73.9176,-309.63024 0,-140.73972 -4.4373,-266.665535 -8.8728,-279.999333 -5.912,-14.8146477 -31.0461,-34.073951 -56.1759,-45.92516 -42.876,-17.778304 -35.4798,-19.259929 94.61,-19.259929 119.7415,1.481625 133.0465,4.444601 93.13,16.296347 l -48.7775,16.296456 V 141.96279 c 0,82.96291 5.9086,155.55498 13.3025,159.99946 7.3915,4.44568 75.3915,-69.62861 152.2662,-164.44364 l 137.4747,-174.814909 88.6999,-2.962901 88.7019,-2.962972 -59.1354,26.66688 C 6138.5914,8.6298482 6030.6742,128.62999 5890.232,322.70356 l -35.4744,47.40812 81.3035,82.96252 c 90.177,91.85166 158.1748,139.25938 226.1791,154.074 32.527,8.88918 8.8657,11.85183 -79.8301,11.85183 -96.0886,1.4815 -116.7841,-2.96265 -90.1704,-13.33359 35.4757,-14.81462 33.9984,-17.77781 -88.6979,-140.74079 L 5779.3652,338.99997 5774.926,453.0742 c -5.9079,137.77762 -1.4748,149.62919 51.7449,158.51829 22.1722,2.96255 -22.1764,5.92605 -99.0485,5.92605 -76.8682,0 -124.1723,-2.9635 -103.4789,-5.92605 z"
       id="path6"
       style="fill:#ffffff;stroke-width:1.47948" />
    <path
       d="m 2585.0723,574.29377 c 0,-40.17196 17.3729,-53.56283 54.7816,-41.51115 41.4244,13.39063 28.06,65.61473 -17.3704,70.97113 -32.0685,4.01657 -37.4112,0 -37.4112,-29.45998 z"
       id="path7"
       style="fill:#ffffff;stroke-width:1.33735" />
    <path
       d="m 2397.0449,414.55543 c -4.4363,-16.29661 -25.1377,-35.55536 -45.8324,-44.44375 -38.4334,-14.81561 -38.4334,-14.81561 -10.3462,-42.96303 26.608,-26.66679 29.564,-47.40793 26.608,-162.96276 -4.4331,-157.0376207 4.4329,-189.630166 59.134,-210.370936 48.7833,-19.2594 137.4783,2.962874 168.5223,41.4813607 17.7371,22.2223213 17.7371,23.7038073 -8.8686,13.3335335 -63.5626,-26.6667622 -97.5677,-26.6667622 -125.6584,-1.4815789 -25.1237,23.7036937 -29.5604,45.9262347 -29.5604,174.8140007 v 146.6671 l 73.9192,-5.92581 c 62.0825,-2.96305 73.9096,0 73.9096,22.22212 0,20.74084 -13.3025,25.186 -73.9096,25.186 -69.4825,0 -73.9192,2.96241 -73.9192,37.03658 0,44.4439 -23.6516,48.88958 -33.9983,7.40717 z"
       id="path8"
       style="fill:#ffffff;stroke-width:1.47948" />
    <path
       d="m 3533.8446,359.74129 c -5.9093,-23.70341 -13.3037,-54.81537 -17.7393,-71.11194 -7.3949,-25.18431 -2.9526,-23.70331 29.5654,10.37083 39.9157,41.4822 107.9136,62.2224 175.9143,53.33343 36.9623,-4.44491 34.0041,-8.88891 -87.2171,-189.62953 -67.998,-100.741788 -124.1776,-189.629905 -124.1776,-197.037245 0,-5.926035 78.3452,-8.889007 174.4368,-7.407382 l 172.9612,4.444248 2.9557,66.666626 c 2.9604,57.77836 1.4862,62.221898 -14.7809,38.51876 -45.8286,-71.1113326 -67.9994,-82.963233 -158.1755,-82.963233 h -88.6974 l 125.6541,189.629606 125.6503,188.14795 -140.4283,4.4448 c -76.8802,1.48174 -140.4439,10.37036 -140.4439,17.77783 0,32.5917 -26.6055,11.85141 -35.4778,-25.18475 z"
       id="path9"
       style="fill:#ffffff;stroke-width:1.47948" />
    <path
       d="m 2723.7439,352.33361 c -79.8309,-34.07398 -90.1765,-50.37136 -29.567,-48.88922 h 39.9215 l 4.4309,-148.14764 c 4.4317,-136.296628 1.4741,-149.6300781 -28.0911,-174.814753 -31.0438,-25.185426 -28.0885,-25.185426 69.4775,-25.185426 96.089,0 99.0455,1.481257 68.0039,23.703533 -31.0485,20.74101174 -32.5216,32.592442 -32.5216,214.814696 0,105.18538 -4.44,191.11124 -10.3461,189.63023 -7.3971,0 -42.8728,-14.81508 -81.308,-31.11142 z"
       id="path10"
       style="fill:#ffffff;stroke-width:1.47948" />
    <path
       d="m 2989.8374,353.81426 c -65.049,-32.5918 -72.4402,-50.36987 -19.2163,-37.0366 48.7809,11.85171 66.5208,-31.11114 66.5208,-165.92569 0,-125.92588 -8.8693,-158.5184427 -48.7807,-177.777795 -26.6117,-11.851746 -10.3522,-16.296347 78.3463,-16.296347 99.046,-1.481257 106.4381,1.481625 73.9142,17.777896 -35.4774,17.7778033 -36.9546,25.18539174 -41.3925,162.962886 l -4.4355,143.70391 48.7846,29.62896 c 66.5222,40.00038 107.9142,37.03722 143.3902,-8.88923 26.611,-32.59208 31.0457,-60.73965 31.0457,-170.36968 0,-127.4071844 -1.4767,-131.85145426 -39.91,-152.592466 -39.9192,-22.222276 -36.9588,-22.222276 69.4775,-22.222276 90.174,0 104.9562,2.962972 81.3015,16.296347 -47.2996,26.66694074 -51.7315,41.48133 -51.7315,198.518495 0,136.29641 -2.9619,151.11089 -34.0034,180.74094 -47.3109,44.44384 -124.1817,42.96308 -193.6602,-4.44491 l -53.2154,-35.55547 -8.8729,35.55547 c -10.3435,44.4449 -25.1283,44.4449 -97.5624,5.92556 z"
       id="path11"
       style="fill:#ffffff;stroke-width:1.47948" />
    <path
       d="m 4049.7683,356.77761 c -69.4822,-31.1107 -102.0035,-66.66617 -90.1753,-97.77753 14.7837,-40.00009 51.7395,-23.70399 82.7817,37.03706 22.1734,44.44524 38.4348,59.25893 66.5244,59.25893 45.8312,0 66.5263,-38.51841 66.5263,-121.48178 v -65.18492 l -81.3076,-26.66658 c -44.3495,-16.29624 -94.6153,-41.48038 -110.8762,-56.295859 -32.5147,-31.111449 -38.4348,-85.92581526 -11.8201,-112.592756 23.6498,-23.703535 99.0425,-22.222478 144.8721,4.444337 48.7782,28.1481599 73.913,28.1481599 73.913,0 0,-29.629517 50.2634,-28.147872 107.9138,2.963485 l 47.3051,26.6662723 -47.3051,4.4442767 -48.786,4.444739 V 137.51861 c 0,238.51879 -47.3006,288.88931 -199.5661,219.259 z M 4150.2887,20.481568 c -62.0883,-47.407393 -156.6949,10.370395 -103.474,63.703815 14.777,14.814627 47.3031,34.074047 73.915,42.962847 47.2982,16.29683 47.2982,16.29683 51.7354,-34.073997 2.9603,-37.037049 -2.9598,-57.777518 -22.1764,-72.592665 z"
       id="path12"
       style="fill:#ffffff;stroke-width:1.47948" />
    <path
       d="M 5071.2644,370.11168 C 4953.0038,333.07421 4887.9549,168.62937 4947.083,50.111451 c 45.828,-96.296497 193.6633,-134.814873 285.3183,-74.073694 51.7424,34.073702 42.8682,39.999528 -29.5674,20.7399974 C 5090.4823,-31.370432 4998.8305,48.629388 5006.2205,170.11145 l 4.4352,57.77727 110.8743,2.96315 c 60.6009,1.48177 119.7407,2.96242 130.0897,4.44422 28.0864,2.96334 20.6916,82.96354 -10.349,111.11139 -34.0084,31.11109 -112.3489,41.48097 -170.0063,23.7042 z m 100.5227,-47.40812 c 42.8726,-60.7408 31.0468,-71.11103 -72.4302,-71.11103 -106.4459,0 -115.3151,11.85251 -59.1338,66.6671 44.3429,45.92574 101.9995,47.40689 131.564,4.44393 z"
       id="path13"
       style="fill:#ffffff;stroke-width:1.47948" />
    <path
       d="m 6293.8056,355.29607 c -69.4754,-31.11071 -82.7807,-48.88814 -29.5617,-41.4813 31.0428,4.44486 32.5187,0 41.3905,-146.66646 5.9147,-118.518922 13.3048,-158.5184618 35.4809,-182.222456 35.4761,-39.999812 131.564,-39.999812 192.1821,0 54.6908,37.037063 66.5164,37.037063 66.5164,2.963112 0,-44.444401 14.7831,-47.407253 84.2628,-13.333242 66.5248,32.5925453 66.5248,32.5925453 25.1285,39.999781 l -42.8697,7.407412 -4.4328,182.222463 c -4.4363,202.96288 0,197.03712 -109.3922,140.7403 -50.2684,-23.70322 -53.2203,-37.0366 -7.3884,-31.11091 31.0402,4.44486 32.5134,0 36.9524,-128.88883 l 4.432,-133.333247 -44.3468,-26.666603 c -59.134,-35.555459 -113.8262,-32.5925627 -140.4356,7.407516 -17.7392,25.184173 -23.6531,72.592114 -23.6531,192.592094 0,88.88907 -4.4383,160.00034 -10.3501,160.00034 -7.3864,0 -39.9147,-13.33352 -73.9152,-29.62997 z"
       id="path14"
       style="fill:#ffffff;stroke-width:1.47948" />
    <path
       d="m 7269.4763,355.29607 c -69.4774,-31.11071 -82.7859,-48.88814 -29.5662,-41.4813 31.0432,4.44486 32.5284,0 41.3979,-146.66646 5.9103,-118.518922 13.298,-158.5184618 35.4733,-182.222456 36.9608,-39.999812 137.4813,-39.999812 189.2215,0 45.8281,37.037063 69.4774,37.037063 69.4774,2.963112 0,-44.444401 14.7855,-47.407253 84.2629,-13.333242 66.5213,32.5925453 66.5213,32.5925453 25.1351,39.999781 l -42.8681,7.407412 -4.4408,182.222463 c -4.4315,202.96288 0,197.03712 -109.3873,140.7403 -50.2627,-23.70322 -53.2246,-37.0366 -7.398,-31.11091 31.0469,4.44486 32.5267,0 36.9622,-128.88883 L 7562.178,51.592693 7517.827,24.92609 c -56.171,-32.5925627 -109.3885,-32.5925627 -138.9556,1.481553 -20.6961,22.221745 -25.1293,59.259288 -25.1293,192.592347 0,91.85149 -4.4341,165.92605 -10.3464,165.92605 -7.3968,0 -39.914,-13.33352 -73.9194,-29.62997 z"
       id="path15"
       style="fill:#ffffff;stroke-width:1.47948" />
    <path
       d="m 7809.0536,353.81426 c -65.0479,-32.5918 -72.4357,-50.36987 -19.2171,-37.0366 48.7852,11.85171 66.5219,-31.11114 66.5219,-165.92569 0,-125.92588 -8.8697,-158.5184427 -48.7791,-177.777795 -26.6127,-11.851746 -8.8779,-16.296347 78.3461,-16.296347 106.4393,0 109.394,0 70.9541,22.222276 -41.3876,20.74101174 -41.3876,23.7036074 -41.3876,161.481506 v 140.74091 l 48.7781,29.62896 c 56.1787,35.556 82.787,37.03722 122.6982,8.88903 23.6526,-17.77826 29.5684,-42.96304 32.5276,-168.88854 5.908,-140.740511 4.4352,-148.1482586 -28.0926,-171.851866 -34.0031,-22.222276 -31.0413,-23.703533 63.5686,-23.703533 h 99.0497 l -35.4829,37.0369563 c -32.5188,31.1112907 -36.9559,48.8890187 -36.9559,146.6665827 0,94.81418 4.4371,117.03729 34.004,148.14816 45.8166,51.8517 100.5179,62.22252 143.389,26.6665 31.0468,-25.18542 36.9552,-44.4446 41.3973,-142.2221 7.38,-137.777891 -1.4832,-177.7778695 -44.3565,-198.518495 -28.0822,-13.333375 -14.7798,-16.296347 76.8688,-16.296347 106.4437,0 109.3932,0 70.9581,22.222276 -41.3872,22.2222587 -41.3872,22.2222587 -41.3872,177.777406 0,145.18474 -2.9568,158.51906 -36.9587,191.11119 -54.6958,56.29715 -130.0903,45.92604 -209.9108,-25.18514 -31.0546,-28.14812 -31.0546,-28.14812 -39.9173,0 -10.3505,32.59251 -67.9989,62.22248 -118.2693,62.22248 -19.2158,0 -59.127,-16.29609 -88.6961,-37.03734 l -53.2121,-35.55547 -8.8746,35.55547 c -10.3453,44.4449 -25.1296,44.4449 -97.5637,5.92556 z"
       id="path16"
       style="fill:#ffffff;stroke-width:1.47948" />
    <path
       d="m 8713.7688,352.33361 c -36.9636,-19.2594 -78.3501,-54.81584 -93.1366,-81.48168 -53.2157,-94.81477 -25.1329,-241.481603 57.6517,-294.814173 51.7413,-34.075145 181.8431,-34.075145 233.5663,0 53.221,34.073702 44.356,39.999528 -29.5622,20.7399974 -121.2201,-32.5924274 -212.8766,47.4081506 -212.8766,185.1845156 0,109.63039 42.8775,171.85199 121.2262,173.3338 28.0886,0 48.7845,-11.85137 65.0448,-37.03644 26.6056,-41.48216 76.8681,-48.88946 90.1719,-13.33371 26.6104,69.62917 -127.1281,102.22234 -232.0855,47.40769 z"
       id="path17"
       style="fill:#ffffff;stroke-width:1.47948" />
    <path
       d="m 9043.4248,355.29607 c -69.4782,-31.11071 -82.786,-48.88814 -29.5661,-41.4813 31.0348,4.44486 32.5193,0 41.3906,-146.66646 5.9131,-118.518922 13.3024,-158.5184618 35.4806,-182.222456 36.9632,-39.999812 137.4785,-39.999812 189.217,0 45.832,37.037063 69.4822,37.037063 69.4822,2.963112 0,-44.444401 14.7844,-47.407253 84.2565,-13.333242 66.5254,32.5925453 66.5254,32.5925453 25.1409,39.999781 l -42.8781,7.407412 -4.4272,182.222463 c -4.4424,202.96288 0,197.03712 -109.3993,140.7403 -50.2613,-23.70322 -53.2257,-37.0366 -7.3887,-31.11091 31.0457,4.44486 32.5207,0 36.9626,-128.88883 l 4.43,-133.333247 -44.3513,-26.666603 c -56.171,-32.5925627 -109.3914,-32.5925627 -138.9616,1.481553 -20.6898,22.221745 -25.1198,59.259288 -25.1198,192.592347 0,91.85149 -4.4432,165.92605 -10.3563,165.92605 -7.39,0 -39.9173,-13.33352 -73.912,-29.62997 z"
       id="path18"
       style="fill:#ffffff;stroke-width:1.47948" />
    <path
       d="m 9856.4826,355.29607 c -69.4803,-31.11071 -82.7885,-48.88814 -29.5682,-41.4813 31.0449,4.44486 32.5241,0 41.3926,-146.66646 5.9094,-118.518922 13.3019,-158.5184618 35.4784,-182.222456 35.4773,-39.999812 131.5666,-39.999812 192.1766,0 54.696,37.037063 66.522,37.037063 66.522,2.963112 0,-44.444401 14.786,-47.407253 84.266,-13.333242 66.527,32.5925453 66.527,32.5925453 25.128,39.999781 l -42.869,7.407412 -4.438,182.222463 c -4.432,202.96288 0,197.03712 -109.391,140.7403 -50.25,-23.70322 -53.216,-37.0366 -7.392,-31.11091 31.044,4.44486 32.526,0 36.961,-128.88883 l 4.432,-133.333247 -44.348,-26.666603 c -56.175,-32.5925627 -109.3912,-32.5925627 -138.9616,1.481553 -20.6936,22.221745 -25.1261,59.259288 -25.1261,192.592347 0,91.85149 -4.4351,165.92605 -10.3523,165.92605 -7.3913,0 -39.9117,-13.33352 -73.9104,-29.62997 z"
       id="path19"
       style="fill:#ffffff;stroke-width:1.47948" />
    <path
       d="m 6759.4669,359.74129 c 10.3529,-4.44522 62.0858,-94.81525 115.3083,-200.00053 109.3951,-219.259047 110.8678,-231.111185 33.9994,-364.44406 l -44.3426,-78.51894 -75.3958,4.44477 c -50.2633,2.96285 -76.8681,-1.48186 -81.3093,-13.33343 -4.4334,-14.81475 16.2607,-19.25948 75.3917,-19.25948 75.3846,0 84.2644,2.96313 121.2242,51.85245 22.1699,29.62944 85.7391,170.369897 140.4336,315.555114 60.6103,157.037036 113.8329,272.592186 133.05,288.888496 31.0373,25.186 29.5641,25.186 -62.0903,23.70427 -63.5668,-1.48174 -82.7848,-4.44458 -57.6511,-11.85234 20.6935,-5.92575 38.4335,-22.22187 41.3893,-35.55515 5.9124,-29.6298 -67.9996,-262.222278 -84.2601,-262.222278 -13.3105,0 -134.5275,245.925738 -134.5275,272.592008 0,11.85251 14.785,25.18542 34.0048,28.1491 17.7355,2.96212 -13.3086,7.40692 -70.9633,7.40692 -56.1679,0 -94.6035,-2.96284 -84.2613,-7.40692 z"
       id="path20"
       style="fill:#ffffff;stroke-width:1.47948" />
  </g>
</svg>
