<?xml version="1.0" encoding="UTF-8" standalone="no"?>
<svg
   id="Layer_1"
   viewBox="0 0 312.36399 194.83344"
   width="2596.9736"
   height="1620"
   version="1.1"
   sodipodi:docname="aws.svg"
   inkscape:version="1.3 (0e150ed, 2023-07-21)"
   xmlns:inkscape="http://www.inkscape.org/namespaces/inkscape"
   xmlns:sodipodi="http://sodipodi.sourceforge.net/DTD/sodipodi-0.dtd"
   xmlns="http://www.w3.org/2000/svg"
   xmlns:svg="http://www.w3.org/2000/svg">
  <defs
     id="defs3" />
  <sodipodi:namedview
     id="namedview3"
     pagecolor="#505050"
     bordercolor="#ffffff"
     borderopacity="1"
     inkscape:showpageshadow="0"
     inkscape:pageopacity="0"
     inkscape:pagecheckerboard="1"
     inkscape:deskcolor="#505050"
     inkscape:zoom="0.15785953"
     inkscape:cx="1251.1123"
     inkscape:cy="747.5"
     inkscape:window-width="1312"
     inkscape:window-height="431"
     inkscape:window-x="0"
     inkscape:window-y="25"
     inkscape:window-maximized="0"
     inkscape:current-layer="Layer_1" />
  <style
     id="style1">.st0{fill:#252f3e}.st1{fill:#f90}</style>
  <path
     class="st0"
     d="m 91.826132,70.757886 c 0,4.00978 0.43349,7.260952 1.192097,9.645145 0.866979,2.384193 1.950703,4.985131 3.467917,7.802814 0.541862,0.866979 0.758607,1.733958 0.758607,2.492565 0,1.083724 -0.650235,2.167449 -2.059076,3.251173 l -6.827462,4.551641 c -0.975352,0.650235 -1.950704,0.975352 -2.817683,0.975352 -1.083724,0 -2.167448,-0.541862 -3.251172,-1.517214 -1.517214,-1.625586 -2.817683,-3.359545 -3.901407,-5.093503 -1.083724,-1.842331 -2.167449,-3.901407 -3.359545,-6.393973 -8.453048,9.970262 -19.073545,14.955394 -31.86149,14.955394 -9.103282,0 -16.364234,-2.600939 -21.674482,-7.802814 -5.310249,-5.201876 -8.019559,-12.137711 -8.019559,-20.807504 0,-9.211655 3.251172,-16.689352 9.86189,-22.324717 6.610717,-5.635366 15.388882,-8.453048 26.551241,-8.453048 3.684662,0 7.477696,0.325117 11.487476,0.866979 4.009779,0.541862 8.127931,1.408841 12.462827,2.384193 v -7.911186 c 0,-8.236304 -1.733958,-13.980042 -5.093503,-17.339586 -3.467917,-3.359545 -9.320028,-4.985131 -17.664704,-4.985131 -3.793034,0 -7.694441,0.433489 -11.70422,1.408841 -4.00978,0.975352 -7.911186,2.167448 -11.704221,3.684662 -1.733959,0.758607 -3.034427,1.192097 -3.793034,1.408841 -0.758607,0.216745 -1.300469,0.325118 -1.733959,0.325118 -1.517214,0 -2.275821,-1.083725 -2.275821,-3.359545 v -5.310249 c 0,-1.733958 0.216745,-3.034427 0.758607,-3.793034 C 21.167318,8.6604931 22.14267,7.9018862 23.659884,7.1432793 27.452918,5.1925759 32.00456,3.5669897 37.314808,2.2665207 42.625056,0.85767931 48.260422,0.20744483 54.220904,0.20744483 c 12.896318,0 22.324718,2.92605517 28.393573,8.77816547 5.960483,5.8521107 8.99491,14.7386487 8.99491,26.6596137 v 35.112662 z m -43.9992,16.472607 c 3.57629,0 7.260952,-0.650234 11.162359,-1.950703 3.901407,-1.300469 7.369324,-3.684662 10.295379,-6.935835 1.733959,-2.059076 3.034428,-4.334896 3.684662,-6.935834 0.650235,-2.600938 1.083724,-5.743738 1.083724,-9.4284 v -4.551642 c -3.1428,-0.758607 -6.502345,-1.408841 -9.970262,-1.842331 -3.467917,-0.433489 -6.827462,-0.650234 -10.187007,-0.650234 -7.260951,0 -12.5712,1.408841 -16.147489,4.334896 -3.57629,2.926056 -5.310249,7.044207 -5.310249,12.462828 0,5.093503 1.300469,8.886538 4.00978,11.487476 2.600938,2.70931 6.393972,4.009779 11.379103,4.009779 z m 87.023048,11.704221 c -1.9507,0 -3.25117,-0.325117 -4.11815,-1.083724 -0.86698,-0.650235 -1.62558,-2.167449 -2.27582,-4.226524 L 102.98849,9.8525897 C 102.33826,7.6851414 102.01314,6.2763 102.01314,5.5176931 c 0,-1.7339586 0.86698,-2.7093103 2.60094,-2.7093103 h 10.6205 c 2.05907,0 3.46791,0.3251172 4.22652,1.0837241 0.86698,0.6502345 1.51721,2.1674483 2.16745,4.2265241 l 18.20656,71.742538 16.9061,-71.742538 c 0.54186,-2.1674482 1.1921,-3.5762896 2.05908,-4.2265241 0.86698,-0.6502345 2.38419,-1.0837241 4.33489,-1.0837241 h 8.6698 c 2.05907,0 3.46791,0.3251172 4.33489,1.0837241 0.86698,0.6502345 1.62559,2.1674483 2.05908,4.2265241 l 17.12284,72.609517 18.74843,-72.609517 c 0.65023,-2.1674482 1.40884,-3.5762896 2.16745,-4.2265241 0.86698,-0.6502345 2.27582,-1.0837241 4.22652,-1.0837241 h 10.07863 c 1.73396,0 2.70932,0.8669793 2.70932,2.7093103 0,0.5418621 -0.10838,1.0837241 -0.21675,1.7339586 -0.10837,0.6502345 -0.32512,1.5172138 -0.75861,2.7093104 L 206.15903,93.732838 c -0.65023,2.167448 -1.40884,3.57629 -2.27582,4.226524 -0.86698,0.650235 -2.27582,1.083724 -4.11815,1.083724 h -9.32003 c -2.05907,0 -3.46792,-0.325117 -4.33489,-1.083724 -0.86698,-0.758607 -1.62559,-2.167448 -2.05908,-4.334896 L 167.25334,23.724259 150.56398,93.516093 c -0.54186,2.167448 -1.19209,3.57629 -2.05907,4.334897 -0.86698,0.758607 -2.3842,1.083724 -4.3349,1.083724 z m 139.25856,2.926056 c -5.63537,0 -11.27074,-0.65024 -16.68936,-1.950704 -5.41862,-1.300469 -9.64514,-2.709311 -12.46282,-4.334897 -1.73396,-0.975352 -2.92606,-2.059076 -3.35955,-3.034428 -0.43349,-0.975351 -0.65023,-2.059075 -0.65023,-3.034427 v -5.526993 c 0,-2.275821 0.86698,-3.359545 2.49256,-3.359545 0.65024,0 1.30047,0.108372 1.95071,0.325117 0.65023,0.216745 1.62558,0.650235 2.70931,1.083724 3.68466,1.625586 7.69444,2.926055 11.92096,3.793035 4.3349,0.866979 8.56142,1.300469 12.89632,1.300469 6.82746,0 12.13771,-1.192097 15.82237,-3.57629 3.68466,-2.384193 5.63537,-5.85211 5.63537,-10.295379 0,-3.034428 -0.97536,-5.526993 -2.92606,-7.586069 -1.9507,-2.059076 -5.63536,-3.901407 -10.94561,-5.635366 l -15.714,-4.876758 c -7.91119,-2.492566 -13.7633,-6.177228 -17.33959,-11.053987 -3.57629,-4.768386 -5.41862,-10.078634 -5.41862,-15.714 0,-4.551641 0.97535,-8.56142 2.92606,-12.029338 1.9507,-3.467917 4.55164,-6.5023443 7.80281,-8.8865374 C 256.01034,4.975831 259.695,3.1335 264.0299,1.833031 c 4.3349,-1.30046893 8.88654,-1.842331 13.65492,-1.842331 2.3842,0 4.87676,0.10837241 7.26096,0.43348966 2.49256,0.32511724 4.76838,0.75860694 7.0442,1.19209654 2.16745,0.5418621 4.22653,1.0837241 6.17723,1.7339586 1.9507,0.6502345 3.46792,1.300469 4.55164,1.9507035 1.51722,0.8669793 2.60094,1.7339586 3.25117,2.7093103 0.65024,0.8669793 0.97536,2.0590754 0.97536,3.5762894 v 5.093504 c 0,2.27582 -0.86698,3.467917 -2.49257,3.467917 -0.86698,0 -2.27582,-0.43349 -4.11815,-1.300469 -6.17723,-2.817683 -13.11306,-4.226524 -20.8075,-4.226524 -6.17723,0 -11.05399,0.975352 -14.41354,3.034427 -3.35954,2.059076 -5.0935,5.201876 -5.0935,9.645145 0,3.034428 1.08373,5.635366 3.25117,7.694442 2.16745,2.059076 6.17723,4.118151 11.92097,5.960482 l 15.38888,4.876759 c 7.80282,2.492566 13.43818,5.960483 16.79773,10.403752 3.35954,4.443269 4.98513,9.536772 4.98513,15.172138 0,4.660013 -0.97535,8.886538 -2.81769,12.5712 -1.9507,3.684662 -4.55164,6.935834 -7.91118,9.536772 -3.35955,2.70931 -7.36933,4.660014 -12.02934,6.068855 -4.87676,1.517212 -9.97026,2.275822 -15.49725,2.275822 z"
     id="path1"
     style="fill:#ffffff;stroke-width:1.08372" />
  <path
     class="st1"
     d="m 294.59092,154.52976 c -35.65452,26.3345 -87.45654,40.31454 -131.9976,40.31454 -62.42251,0 -118.667795,-23.08332 -161.149781,-61.44716 -3.3595448,-3.03443 -0.3251173,-7.15258 3.684662,-4.76838 45.949903,26.65961 102.628679,42.8071 161.258159,42.8071 39.55593,0 83.01326,-8.2363 123.00269,-25.1424 5.96048,-2.70931 11.05398,3.90141 5.20187,8.2363 z"
     id="path2"
     style="fill:#ffffff;stroke-width:1.08372" />
  <path
     class="st1"
     d="m 285.53202,126.9907 c -4.2,-5.4 -27.8,-2.6 -38.5,-1.3 -3.2,0.4 -3.7,-2.4 -0.8,-4.5 18.8,-13.2 49.7,-9.4 53.3,-5 3.6,4.5 -1,35.4 -18.6,50.2 -2.7,2.3 -5.3,1.1 -4.1,-1.9 4,-9.9 12.9,-32.2 8.7,-37.5 z"
     id="path3"
     style="fill:#ffffff" />
</svg>
