<?xml version="1.0" encoding="UTF-8" standalone="no"?>
<svg
   version="1.0"
   width="10203.23pt"
   height="1620pt"
   viewBox="0 0 10203.23 1620"
   preserveAspectRatio="xMidYMid"
   id="svg11"
   sodipodi:docname="housecare24.svg"
   inkscape:version="1.3 (0e150ed, 2023-07-21)"
   xmlns:inkscape="http://www.inkscape.org/namespaces/inkscape"
   xmlns:sodipodi="http://sodipodi.sourceforge.net/DTD/sodipodi-0.dtd"
   xmlns="http://www.w3.org/2000/svg"
   xmlns:svg="http://www.w3.org/2000/svg">
  <defs
     id="defs11" />
  <sodipodi:namedview
     id="namedview11"
     pagecolor="#505050"
     bordercolor="#ffffff"
     borderopacity="1"
     inkscape:showpageshadow="0"
     inkscape:pageopacity="0"
     inkscape:pagecheckerboard="1"
     inkscape:deskcolor="#505050"
     inkscape:document-units="pt"
     inkscape:zoom="0.028558224"
     inkscape:cx="192.58901"
     inkscape:cy="525.24276"
     inkscape:window-width="1312"
     inkscape:window-height="431"
     inkscape:window-x="0"
     inkscape:window-y="25"
     inkscape:window-maximized="0"
     inkscape:current-layer="svg11" />
  <g
     transform="matrix(2.078051,0,0,-2.078051,-207.8051,1994.0492)"
     fill="#000000"
     stroke="none"
     id="g11"
     style="fill:#ffffff">
    <path
       d="m 2525,945 c -47,-17 -72,-44 -80,-88 -3,-18 -5,-158 -3,-312 3,-262 4,-282 23,-307 29,-40 84,-58 171,-58 143,0 176,33 182,183 l 4,97 h -40 -40 l -4,-90 c -5,-110 -19,-131 -95,-137 -61,-5 -95,12 -110,57 -15,45 -17,499 -3,552 13,44 37,60 94,60 93,2 116,-30 116,-162 v -80 h 40 40 v 96 c 0,119 -16,158 -74,185 -50,23 -163,25 -221,4 z"
       id="path1"
       style="fill:#ffffff" />
    <path
       d="M 4305,950 C 4203,934 4161,877 4160,758 v -68 h 39 c 35,0 39,3 45,31 3,17 6,46 6,63 0,49 33,94 75,102 56,10 97,-6 117,-46 32,-63 18,-171 -30,-223 -9,-10 -58,-43 -108,-72 -125,-74 -137,-93 -142,-242 l -5,-113 h 202 201 v 35 35 h -156 -157 l 6,60 c 11,97 34,128 134,179 59,30 110,77 136,125 30,58 31,194 1,250 -32,63 -119,93 -219,76 z"
       id="path2"
       style="fill:#ffffff" />
    <path
       d="M 100,570 V 190 h 40 40 l 2,182 3,183 108,3 107,3 V 375 190 h 40 40 V 570 950 H 440 400 V 785 620 H 290 180 v 165 165 h -40 -40 z"
       id="path3"
       style="fill:#ffffff" />
    <path
       d="M 4726,685 C 4618,475 4590,412 4590,380 v -40 h 130 130 v -75 -75 h 45 45 v 75 75 h 35 c 32,0 35,2 35,30 0,28 -3,30 -35,30 h -35 v 275 275 h -39 -39 z M 4850,585 V 400 h -90 c -55,0 -90,4 -90,10 0,10 172,360 178,360 1,0 2,-83 2,-185 z"
       id="path4"
       style="fill:#ffffff" />
    <path
       d="m 706,830 c -41,-13 -74,-48 -86,-89 -14,-50 -13,-420 1,-462 17,-51 46,-76 101,-89 52,-13 131,-7 173,12 14,6 34,30 45,53 18,38 20,61 20,259 0,243 -6,273 -64,303 -36,19 -148,27 -190,13 z m 134,-60 c 32,-17 40,-66 40,-260 0,-245 -9,-270 -97,-270 -82,1 -93,34 -93,270 0,183 7,233 37,256 21,16 86,18 113,4 z"
       id="path5"
       style="fill:#ffffff" />
    <path
       d="m 1631,831 c -76,-20 -112,-104 -90,-209 12,-60 35,-82 141,-132 89,-43 101,-58 106,-134 4,-55 1,-66 -19,-89 -34,-37 -105,-41 -139,-7 -16,16 -20,33 -20,85 v 65 h -45 c -43,0 -45,-1 -45,-29 0,-57 21,-135 41,-157 45,-48 197,-54 262,-10 41,28 60,82 55,163 -5,84 -25,109 -128,159 -114,56 -133,80 -128,156 5,74 23,93 84,92 63,-1 84,-25 91,-102 6,-63 14,-71 67,-72 17,0 18,6 14,70 -8,111 -46,150 -151,156 -34,2 -77,-1 -96,-5 z"
       id="path6"
       style="fill:#ffffff" />
    <path
       d="m 2066,827 c -21,-6 -48,-25 -60,-40 -20,-27 -21,-43 -24,-255 -4,-259 4,-299 61,-329 43,-22 152,-28 202,-11 55,18 85,77 85,165 v 63 h -40 -40 v -47 c 0,-110 -33,-151 -109,-139 -66,10 -76,31 -76,164 v 117 l 133,3 132,3 v 105 c 0,168 -26,205 -153,210 -40,2 -90,-2 -111,-9 z m 159,-67 c 14,-16 18,-38 19,-108 l 1,-87 -94,-3 -94,-3 5,85 c 6,115 20,136 92,136 40,0 57,-5 71,-20 z"
       id="path7"
       style="fill:#ffffff" />
    <path
       d="m 3025,826 c -56,-25 -70,-50 -74,-137 l -3,-79 h 36 c 36,0 36,0 36,43 0,59 18,115 40,127 38,20 112,7 132,-24 4,-6 8,-33 8,-59 0,-57 -20,-82 -101,-123 -89,-44 -140,-84 -155,-120 -18,-43 -18,-165 0,-209 8,-18 23,-38 33,-43 59,-32 156,-20 199,23 l 24,24 v -29 c 0,-29 2,-30 46,-30 h 46 l -4,283 c -3,316 -5,324 -73,353 -43,18 -150,18 -190,0 z m 164,-508 c -16,-49 -38,-68 -86,-75 -29,-4 -44,0 -63,15 -23,19 -25,27 -25,101 0,93 5,101 115,173 l 65,43 3,-110 c 2,-67 -2,-124 -9,-147 z"
       id="path8"
       style="fill:#ffffff" />
    <path
       d="m 3806,827 c -21,-6 -48,-25 -60,-40 -20,-27 -21,-40 -21,-265 0,-263 5,-291 59,-319 42,-22 151,-28 200,-11 55,18 78,60 84,154 l 5,74 h -42 -41 l -1,-52 c -1,-115 -41,-155 -129,-129 -34,10 -41,17 -50,51 -6,22 -9,82 -8,132 l 3,93 133,3 132,3 v 105 c 0,168 -26,205 -153,210 -40,2 -90,-2 -111,-9 z m 159,-67 c 14,-16 18,-38 19,-108 l 1,-87 -94,-3 -94,-3 5,85 c 6,115 20,136 92,136 40,0 57,-5 71,-20 z"
       id="path9"
       style="fill:#ffffff" />
    <path
       d="m 1072,541 3,-290 29,-30 c 50,-52 147,-54 206,-5 l 29,25 7,-25 c 5,-22 12,-26 40,-26 h 34 v 320 320 h -40 -40 V 575 c 0,-276 -5,-306 -52,-321 -46,-14 -92,-6 -115,21 -23,26 -23,31 -23,291 v 264 h -40 -41 z"
       id="path10"
       style="fill:#ffffff" />
    <path
       d="M 3410,510 V 190 h 40 40 v 254 c 0,253 0,253 24,279 23,25 80,47 124,47 18,0 22,6 22,30 0,29 -2,30 -46,30 -46,0 -114,-25 -114,-41 0,-5 -4,-9 -10,-9 -5,0 -10,11 -10,25 0,22 -4,25 -35,25 h -35 z"
       id="path11"
       style="fill:#ffffff" />
  </g>
</svg>
