<?xml version="1.0" encoding="UTF-8" standalone="no"?>
<!-- Created with Inkscape (http://www.inkscape.org/) -->

<svg
   width="2127.9871mm"
   height="428.73999mm"
   viewBox="0 0 2127.9871 428.73999"
   version="1.1"
   id="svg1"
   sodipodi:docname="g9.svg"
   inkscape:version="1.3 (0e150ed, 2023-07-21)"
   xmlns:inkscape="http://www.inkscape.org/namespaces/inkscape"
   xmlns:sodipodi="http://sodipodi.sourceforge.net/DTD/sodipodi-0.dtd"
   xmlns="http://www.w3.org/2000/svg"
   xmlns:svg="http://www.w3.org/2000/svg">
  <sodipodi:namedview
     id="namedview1"
     pagecolor="#505050"
     bordercolor="#ffffff"
     borderopacity="1"
     inkscape:showpageshadow="0"
     inkscape:pageopacity="0"
     inkscape:pagecheckerboard="1"
     inkscape:deskcolor="#505050"
     inkscape:document-units="mm"
     inkscape:zoom="0.10259698"
     inkscape:cx="3723.3065"
     inkscape:cy="750.50942"
     inkscape:window-width="1312"
     inkscape:window-height="431"
     inkscape:window-x="0"
     inkscape:window-y="25"
     inkscape:window-maximized="0"
     inkscape:current-layer="layer1" />
  <defs
     id="defs1" />
  <g
     inkscape:label="Layer 1"
     inkscape:groupmode="layer"
     id="layer1"
     transform="translate(669.13125,142.875)">
    <g
       id="g9"
       transform="matrix(4.1562246,0,0,4.1562246,-669.13125,-142.875)"
       style="fill:#ffffff">
      <path
         d="m 16.775021,68.029029 c 0,5.930127 1.301603,10.483038 3.002869,13.237469 2.230549,3.607764 5.557469,5.136202 8.949199,5.136202 4.374683,0 8.376708,-1.085569 16.089114,-11.752236 6.178565,-8.549536 13.458903,-20.550211 18.357468,-28.073586 L 71.469367,33.830886 C 77.232067,24.978903 83.90211,15.138565 91.549705,8.4685232 97.79308,3.0244726 104.52793,0 111.30599,0 c 11.37958,0 22.21907,6.5944304 30.51477,18.962363 9.07882,13.545316 13.48591,30.606582 13.48591,48.213333 0,10.466836 -2.06313,18.157637 -5.57367,24.233587 -3.39173,5.876118 -10.00237,11.746837 -21.12271,11.746837 V 86.4027 c 9.52169,0 11.89806,-8.749367 11.89806,-18.762531 0,-14.26903 -3.32692,-30.104304 -10.65586,-41.419072 -5.20101,-8.025654 -11.94127,-12.92962 -19.35663,-12.92962 -8.02025,0 -14.474257,6.048945 -21.72759,16.83443 -3.856202,5.730296 -7.815021,12.713587 -12.259916,20.593418 L 71.61519,59.387679 C 61.785654,76.816203 59.295865,80.785823 54.381097,87.337046 45.766751,98.808439 38.410802,103.15612 28.727089,103.15612 17.239494,103.15612 9.9753587,98.181941 5.4764557,90.68557 1.8038819,84.577215 0,76.562363 0,67.429536 Z"
         fill="#0081fb"
         id="path6-7"
         style="fill:#ffffff" />
      <path
         d="M 13.226667,20.145148 C 20.917468,8.2902954 32.016202,0 44.745992,0 52.118144,0 59.447089,2.1819409 67.100084,8.4307173 75.471392,15.262785 84.393586,26.512743 95.524726,45.05384 l 3.991223,6.653839 c 9.635111,16.051308 15.116961,24.309199 18.325061,28.203207 4.12625,5.001182 7.0157,6.491814 10.76928,6.491814 9.52169,0 11.89806,-8.749367 11.89806,-18.762531 l 14.79832,-0.464473 c 0,10.466836 -2.06313,18.157637 -5.57367,24.233587 -3.39173,5.876118 -10.00237,11.746837 -21.12271,11.746837 -6.91307,0 -13.03763,-1.50144 -19.81029,-7.890635 C 103.59359,90.361519 97.506835,81.649958 92.824304,73.818734 L 78.895527,50.551899 C 71.906835,38.875274 65.496034,30.169114 61.785654,26.226498 57.79443,21.986835 52.663629,16.866835 44.475949,16.866835 c -6.626835,0 -12.254514,4.650127 -16.96405,11.763038 z"
         fill="url(#linearGradient-1)"
         id="path7-9"
         style="fill:#ffffff" />
      <path
         d="m 44.475949,16.866835 c -6.626835,0 -12.254514,4.650127 -16.96405,11.763038 -6.659241,10.050971 -10.736878,25.02211 -10.736878,39.399156 0,5.930127 1.301603,10.483038 3.002869,13.237469 L 5.4764557,90.68557 C 1.8038819,84.577215 0,76.562363 0,67.429536 0,50.821941 4.5583122,33.512236 13.226667,20.145148 20.917468,8.2902954 32.016202,0 44.745992,0 Z"
         fill="url(#linearGradient-2)"
         id="path8-3"
         style="fill:#ffffff" />
      <path
         d="m 187.91696,3.2621097 h 19.40523 L 240.31595,62.952236 273.31511,3.2621097 h 18.98396 V 101.34144 H 276.4692 V 26.172489 L 247.53148,78.225823 H 232.67916 L 203.74683,26.172489 V 101.34144 H 187.91696 Z M 341.90042,39.831224 c -11.35257,0 -18.19004,8.544135 -19.8265,19.124388 h 38.52962 c -0.79392,-10.898903 -7.0805,-19.124388 -18.70312,-19.124388 z m -35.52135,25.15173 c 0,-22.262279 14.38785,-38.464811 35.79679,-38.464811 21.05789,0 33.63106,15.9973 33.63106,39.652996 v 4.34768 h -53.733 c 1.9065,11.509198 9.54329,19.26481 21.85722,19.26481 9.82413,0 15.96489,-2.997469 21.787,-8.479325 l 8.40912,10.299409 c -7.92304,7.285739 -18.00102,11.487597 -30.75781,11.487597 -23.17502,0 -36.99038,-16.899243 -36.99038,-38.108356 z M 395.00152,41.235443 H 380.43004 V 28.273418 h 14.57148 V 6.8374683 H 410.2751 V 28.273418 h 22.13806 V 41.235443 H 410.2751 v 32.853333 c 0,11.217553 3.58617,15.203376 12.40034,15.203376 4.02363,0 6.32979,-0.345654 9.73772,-0.912743 v 12.821601 c -4.24506,1.19899 -8.29569,1.74988 -12.68118,1.74988 -16.48877,0 -24.73046,-9.008612 -24.73046,-27.042029 z m 101.72489,12.60557 c -3.06768,-7.744811 -9.91055,-13.448102 -19.96692,-13.448102 -13.07004,0 -21.43595,9.273249 -21.43595,24.37941 0,14.728101 7.70161,24.44962 20.80946,24.44962 10.30481,0 17.66075,-5.994937 20.59341,-13.453502 z M 512,101.34144 H 497.00726 V 91.112236 c -4.19106,6.021941 -11.81705,11.979074 -24.16878,11.979074 -19.8643,0 -33.13958,-16.6292 -33.13958,-38.318989 0,-21.895021 13.59393,-38.254178 33.98211,-38.254178 10.07798,0 17.98481,4.02903 23.32625,11.141941 V 28.273418 H 512 Z"
         fill="#192830"
         id="path9"
         style="fill:#ffffff" />
    </g>
  </g>
</svg>
