<?xml version="1.0" encoding="UTF-8" standalone="no"?>
<svg
   version="1.1"
   width="5500.7373"
   height="2009.722"
   id="svg8"
   sodipodi:docname="shopify.svg"
   inkscape:version="1.3 (0e150ed, 2023-07-21)"
   xmlns:inkscape="http://www.inkscape.org/namespaces/inkscape"
   xmlns:sodipodi="http://sodipodi.sourceforge.net/DTD/sodipodi-0.dtd"
   xmlns="http://www.w3.org/2000/svg"
   xmlns:svg="http://www.w3.org/2000/svg">
  <sodipodi:namedview
     id="namedview1"
     pagecolor="#505050"
     bordercolor="#ffffff"
     borderopacity="1"
     inkscape:showpageshadow="0"
     inkscape:pageopacity="0"
     inkscape:pagecheckerboard="1"
     inkscape:deskcolor="#505050"
     inkscape:zoom="0.14696506"
     inkscape:cx="1558.1935"
     inkscape:cy="1340.4547"
     inkscape:window-width="1312"
     inkscape:window-height="431"
     inkscape:window-x="0"
     inkscape:window-y="25"
     inkscape:window-maximized="0"
     inkscape:current-layer="svg8" />
  <defs
     id="defs8" />
  <g
     id="g2"
     transform="matrix(12.327963,0,0,15.798856,-3.6983889,-4.6320852)"
     style="fill:#ffffff">
    <path
       id="s_5_"
       class="st0"
       d="m 154.4,70.9 c -3.8,-2.1 -5.8,-3.8 -5.8,-6.2 0,-3.1 2.7,-5 7,-5 5,0 9.4,2.1 9.4,2.1 l 3.5,-10.7 c 0,0 -3.2,-2.5 -12.7,-2.5 -13.2,0 -22.4,7.6 -22.4,18.2 0,6 4.3,10.6 10,13.9 4.6,2.6 6.2,4.5 6.2,7.2 0,2.9 -2.3,5.2 -6.6,5.2 -6.4,0 -12.4,-3.3 -12.4,-3.3 l -3.7,10.7 c 0,0 5.6,3.7 14.9,3.7 13.6,0 23.3,-6.7 23.3,-18.7 0.2,-6.6 -4.8,-11.2 -10.7,-14.6 z"
       style="fill:#ffffff" />
    <path
       id="h_5_"
       class="st0"
       d="m 208.6,48.4 c -6.7,0 -11.9,3.2 -16,8 l -0.2,-0.1 5.8,-30.4 H 183 l -14.7,77.3 h 15.1 l 5,-26.4 c 2,-10 7.1,-16.1 11.9,-16.1 3.4,0 4.7,2.3 4.7,5.6 0,2.1 -0.2,4.6 -0.7,6.7 l -5.7,30.3 h 15.1 l 5.9,-31.2 c 0.7,-3.3 1.1,-7.2 1.1,-9.9 0.2,-8.7 -4.2,-13.8 -12.1,-13.8 z"
       style="fill:#ffffff" />
    <path
       id="o_5_"
       class="st0"
       d="m 255.1,48.4 c -18.2,0 -30.3,16.4 -30.3,34.7 0,11.7 7.2,21.2 20.8,21.2 17.9,0 29.9,-16 29.9,-34.7 0.1,-10.9 -6.2,-21.2 -20.4,-21.2 z m -7.4,44.2 c -5.2,0 -7.3,-4.4 -7.3,-9.9 0,-8.7 4.5,-22.8 12.7,-22.8 5.4,0 7.1,4.6 7.1,9.1 0,9.4 -4.5,23.6 -12.5,23.6 z"
       style="fill:#ffffff" />
    <path
       id="p_5_"
       class="st0"
       d="m 314.3,48.4 c -10.2,0 -16,9 -16,9 h -0.2 l 0.9,-8.1 h -13.4 c -0.7,5.5 -1.9,13.8 -3.1,20.1 L 272,124.6 h 15.1 l 4.2,-22.4 h 0.3 c 0,0 3.1,2 8.9,2 17.8,0 29.4,-18.2 29.4,-36.6 0,-10.1 -4.5,-19.2 -15.6,-19.2 z m -14.4,44.5 c -3.9,0 -6.2,-2.2 -6.2,-2.2 l 2.5,-14.1 c 1.8,-9.4 6.7,-15.7 11.9,-15.7 4.6,0 6,4.3 6,8.3 0,9.7 -5.8,23.7 -14.2,23.7 z"
       style="fill:#ffffff" />
    <path
       id="dot_5_"
       class="st0"
       d="m 351.5,26.7 c -4.8,0 -8.7,3.8 -8.7,8.8 0,4.5 2.8,7.6 7.1,7.6 h 0.2 c 4.7,0 8.8,-3.2 8.9,-8.8 0.1,-4.5 -2.9,-7.6 -7.5,-7.6 z"
       style="fill:#ffffff" />
    <polygon
       id="i_5_"
       class="st0"
       points="330.3,103.2 345.5,103.2 355.8,49.6 340.5,49.6 "
       style="fill:#ffffff" />
    <path
       id="f_5_"
       class="st0"
       d="m 394.2,49.5 h -10.5 l 0.5,-2.5 c 0.9,-5.2 3.9,-9.8 9,-9.8 2.7,0 4.8,0.8 4.8,0.8 l 3,-11.8 c 0,0 -2.6,-1.3 -8.2,-1.3 -5.4,0 -10.7,1.5 -14.8,5 -5.2,4.4 -7.6,10.7 -8.8,17.1 l -0.4,2.5 h -7 l -2.2,11.4 h 7 l -8,42.3 h 15.1 l 8,-42.3 h 10.4 z"
       style="fill:#ffffff" />
    <path
       id="y_5_"
       class="st0"
       d="m 430.6,49.6 c 0,0 -9.5,23.8 -13.7,36.8 h -0.2 C 416.4,82.2 413,49.6 413,49.6 h -15.9 l 9.1,49.2 c 0.2,1.1 0.1,1.8 -0.3,2.5 -1.8,3.4 -4.7,6.7 -8.2,9.1 -2.8,2.1 -6,3.4 -8.5,4.3 l 4.2,12.8 c 3.1,-0.7 9.4,-3.2 14.8,-8.2 6.9,-6.5 13.3,-16.4 19.8,-30 l 18.5,-39.7 z"
       style="fill:#ffffff" />
  </g>
  <g
     id="g3"
     transform="matrix(12.327963,0,0,15.798856,-3.6983889,-4.6320852)"
     style="fill:#ffffff">
    <path
       class="st0"
       d="m 74.8,14.8 c 0,0 -1.4,0.4 -3.7,1.1 -0.4,-1.3 -1,-2.8 -1.8,-4.4 -2.6,-5 -6.5,-7.7 -11.1,-7.7 0,0 0,0 0,0 -0.3,0 -0.6,0 -1,0.1 -0.1,-0.2 -0.3,-0.3 -0.4,-0.5 -2,-2.2 -4.6,-3.2 -7.7,-3.1 -6,0.2 -12,4.5 -16.8,12.2 -3.4,5.4 -6,12.2 -6.7,17.5 -6.9,2.1 -11.7,3.6 -11.8,3.7 -3.5,1.1 -3.6,1.2 -4,4.5 -0.3,2.5 -9.5,72.9 -9.5,72.9 l 75.6,13.1 V 14.7 c -0.6,0 -0.9,0.1 -1.1,0.1 z m -17.5,5.4 c -4,1.2 -8.4,2.6 -12.7,3.9 1.2,-4.7 3.6,-9.4 6.4,-12.5 1.1,-1.1 2.6,-2.4 4.3,-3.2 1.7,3.6 2.1,8.5 2,11.8 z M 49.1,4.4 c 1.4,0 2.6,0.3 3.6,0.9 C 51.1,6.1 49.5,7.4 48,8.9 44.2,13 41.3,19.4 40.1,25.5 36.5,26.6 32.9,27.7 29.6,28.7 31.8,19.1 39.9,4.6 49.1,4.4 Z m -11.6,55 c 0.4,6.4 17.3,7.8 18.3,22.9 0.7,11.9 -6.3,20 -16.4,20.6 -12.2,0.8 -18.9,-6.4 -18.9,-6.4 l 2.6,-11 c 0,0 6.7,5.1 12.1,4.7 C 38.7,90 40,87.1 39.9,85.1 39.4,76.7 25.6,77.2 24.7,63.4 23.9,51.8 31.5,40.1 48.3,39 c 6.5,-0.4 9.8,1.2 9.8,1.2 l -3.8,14.4 c 0,0 -4.3,-2 -9.4,-1.6 -7.4,0.5 -7.5,5.2 -7.4,6.4 z M 61.3,19 c 0,-3 -0.4,-7.3 -1.8,-10.9 4.6,0.9 6.8,6 7.8,9.1 -1.8,0.5 -3.8,1.1 -6,1.8 z"
       id="path1"
       style="fill:#ffffff" />
    <path
       class="st0"
       d="m 78.2,124 31.4,-7.8 c 0,0 -13.5,-91.3 -13.6,-91.9 -0.1,-0.6 -0.6,-1 -1.1,-1 -0.5,0 -9.3,-0.2 -9.3,-0.2 0,0 -5.4,-5.2 -7.4,-7.2 z"
       id="path2"
       style="fill:#ffffff" />
  </g>
</svg>
