<?xml version="1.0" encoding="UTF-8" standalone="no"?>
<svg
   version="1.1"
   width="7448"
   height="1618"
   id="svg8"
   sodipodi:docname="treu.svg"
   inkscape:version="1.3 (0e150ed, 2023-07-21)"
   xmlns:inkscape="http://www.inkscape.org/namespaces/inkscape"
   xmlns:sodipodi="http://sodipodi.sourceforge.net/DTD/sodipodi-0.dtd"
   xmlns="http://www.w3.org/2000/svg"
   xmlns:svg="http://www.w3.org/2000/svg">
  <defs
     id="defs8" />
  <sodipodi:namedview
     id="namedview8"
     pagecolor="#ffffff"
     bordercolor="#000000"
     borderopacity="0.25"
     inkscape:showpageshadow="2"
     inkscape:pageopacity="0.0"
     inkscape:pagecheckerboard="0"
     inkscape:deskcolor="#d1d1d1"
     inkscape:zoom="0.10244361"
     inkscape:cx="3719.1193"
     inkscape:cy="810.20183"
     inkscape:window-width="1312"
     inkscape:window-height="431"
     inkscape:window-x="0"
     inkscape:window-y="25"
     inkscape:window-maximized="0"
     inkscape:current-layer="svg8" />
  <path
     d="M0 0 C845.3629675 0 845.3629675 0 993 74 C994.35641602 74.67627441 994.35641602 74.67627441 995.74023438 75.36621094 C1031.25792967 93.18068536 1065.26008216 116.48224753 1094.375 143.5859375 C1096.45842311 145.50194268 1098.56947082 147.35456659 1100.71484375 149.19921875 C1105.53828244 153.40600858 1110.04929655 157.90268504 1114.5625 162.4375 C1115.37396484 163.24509766 1116.18542969 164.05269531 1117.02148438 164.88476562 C1121.88942274 169.76056184 1126.52637685 174.76173982 1131 180 C1131.85722656 180.97582031 1132.71445312 181.95164063 1133.59765625 182.95703125 C1187.45288095 245.34715686 1217.34451553 323.64211535 1232 440 C1232.06195053 441.01274994 1232.06195053 441.01274994 1232.12515259 442.04595947 C1232.93260333 455.53370665 1233.20252189 468.9896159 1233.1875 482.5 C1233.18689575 483.5167984 1233.1862915 484.5335968 1233.18566895 485.58120728 C1233.05825734 565.33698724 1221.13108023 646.2844468 1187 719 C1186.53223145 719.99741211 1186.06446289 720.99482422 1185.58251953 722.02246094 C1175.07629544 744.1890429 1162.69324673 765.34267704 1148 785 C1147.55817383 785.59200195 1147.11634766 786.18400391 1146.66113281 786.79394531 C1143.82650982 790.57132882 1140.93138724 794.29693963 1138 798 C1136.89398437 799.39798828 1136.89398437 799.39798828 1135.765625 800.82421875 C1130.91570754 806.852219 1125.80087351 812.57689439 1120.5390625 818.2421875 C1118.55512764 820.39704597 1116.63843486 822.57543102 1114.75 824.8125 C1106.60008261 834.20562512 1097.49883723 842.98588333 1088 851 C1086.87991057 851.98124971 1085.7616058 852.96453822 1084.64453125 853.94921875 C1076.66334996 860.96867444 1068.55621127 867.68552067 1060 874 C1059.31534668 874.5053125 1058.63069336 875.010625 1057.92529297 875.53125 C1047.80397524 882.97188296 1037.56775965 890.20662008 1027 897 C1026.26571777 897.4734082 1025.53143555 897.94681641 1024.77490234 898.43457031 C1005.61066894 910.71841911 985.64659016 921.77557776 965.3125 932 C964.48741943 932.41531982 963.66233887 932.83063965 962.81225586 933.25854492 C957.2592057 936 957.2592057 936 955 936 C955.27448975 936.52392334 955.54897949 937.04784668 955.83178711 937.58764648 C962.43567731 950.20071265 968.98725776 962.83970756 975.5 975.5 C980.30819055 984.84662074 985.12641471 994.18724371 990 1003.5 C995.24988949 1013.53182225 1000.43430177 1023.5967532 1005.61376953 1033.66503906 C1010.05116912 1042.28973382 1014.50278072 1050.90628825 1019 1059.5 C1023.82982721 1068.73048547 1028.60826906 1077.98683369 1033.375 1087.25 C1040.32563014 1100.75669059 1047.30358695 1114.2488353 1054.30273438 1127.73046875 C1064.87063765 1148.08797173 1075.41320821 1168.45853972 1085.94787598 1188.83325195 C1088.15258205 1193.09725517 1090.35743059 1197.36118467 1092.5625 1201.625 C1092.87339569 1202.22616638 1093.18429138 1202.82733276 1093.50460815 1203.44671631 C1098.57309618 1213.24685673 1103.65027187 1223.04247643 1108.73071289 1232.83642578 C1113.30974681 1241.66516852 1117.87987929 1250.49848884 1122.44775391 1259.33300781 C1126.95934512 1268.05836473 1131.4769312 1276.7805852 1136 1285.5 C1141.1565313 1295.44058178 1146.30445076 1305.38557865 1151.44775391 1315.33300781 C1155.95934513 1324.05836475 1160.47695003 1332.78057542 1165 1341.5 C1169.81816838 1350.78873887 1174.63073614 1360.08035577 1179.4375 1369.375 C1179.74831512 1369.97600525 1180.05913025 1370.5770105 1180.37936401 1371.19622803 C1182.90244709 1376.07510893 1185.42516863 1380.95417676 1187.94787598 1385.83325195 C1190.15258205 1390.09725517 1192.35743059 1394.36118467 1194.5625 1398.625 C1194.87339569 1399.22616638 1195.18429138 1399.82733276 1195.50460815 1400.44671631 C1199.99754864 1409.13401071 1204.49663213 1417.81810568 1209 1426.5 C1213.81814837 1435.78874926 1218.63073612 1445.08035575 1223.4375 1454.375 C1223.74831512 1454.97600525 1224.05913025 1455.5770105 1224.37936401 1456.19622803 C1226.90244709 1461.07510893 1229.42516863 1465.95417676 1231.94787598 1470.83325195 C1234.15258205 1475.09725517 1236.35743059 1479.36118467 1238.5625 1483.625 C1238.87339569 1484.22616638 1239.18429138 1484.82733276 1239.50460815 1485.44671631 C1244.57234387 1495.24540211 1249.64863802 1505.03963441 1254.72851562 1514.83203125 C1257.42295558 1520.02693572 1260.11626421 1525.22241574 1262.80400085 1530.42079163 C1263.43783324 1531.6465593 1264.07195855 1532.87217556 1264.70637512 1534.09764099 C1266.2886101 1537.15503518 1267.86557088 1540.21493327 1269.43188477 1543.28051758 C1272.45086457 1549.1748625 1275.54249223 1555.0059439 1278.8359375 1560.75390625 C1279.44236084 1561.83913574 1280.04878418 1562.92436523 1280.67358398 1564.04248047 C1281.79817072 1566.04759138 1282.95128185 1568.03715099 1284.14086914 1570.00439453 C1289.55704553 1579.79448263 1288 1584.13404401 1288 1597 C1151.71 1597 1015.42 1597 875 1597 C863.5137972 1575.17621468 863.5137972 1575.17621468 859.52159691 1567.16624165 C859.05082082 1566.22584332 858.58004474 1565.28544499 858.09500271 1564.31654975 C856.55188206 1561.23290985 855.01156718 1558.14787798 853.47128296 1555.06282043 C852.34087711 1552.80244576 851.21029514 1550.54215915 850.0795542 1548.28195208 C847.6391251 1543.40285186 845.1999181 1538.52314383 842.76183319 1533.64287186 C839.13659029 1526.38630362 835.50901463 1519.13090329 831.88098921 1511.87572589 C825.77553647 1499.66612866 819.67193314 1487.45560781 813.56940842 1475.24454689 C807.53310481 1463.16600878 801.49596416 1451.08788964 795.45772171 1439.01032066 C795.08132278 1438.25745407 794.70492385 1437.50458747 794.3171189 1436.72890674 C792.40532803 1432.90498664 790.49352237 1429.08107394 788.58171101 1425.25716408 C775.06442816 1398.22050179 761.54899759 1371.18291396 748.03466797 1344.14477539 C734.91126243 1317.88876986 721.78701065 1291.63318761 708.66162109 1265.37817383 C708.25655315 1264.56790641 707.8514852 1263.75763899 707.43414247 1262.92281801 C703.36602948 1254.78527344 699.29789937 1246.64773742 695.22975672 1238.51020766 C686.94356879 1221.93529606 678.65749507 1205.36032736 670.37149048 1188.7853241 C669.99057039 1188.02334663 669.6096503 1187.26136917 669.21718718 1186.47630148 C657.54904361 1163.13579391 645.8813838 1139.79504457 634.21420288 1116.45405579 C633.88316434 1115.79179115 633.5521258 1115.12952651 633.21105579 1114.44719324 C619.80707137 1087.63161169 606.40360017 1060.81577362 593 1034 C524.69 1033.67 456.38 1033.34 386 1033 C386 1219.12 386 1405.24 386 1597 C258.62 1597 131.24 1597 0 1597 C0 1069.99 0 542.98 0 0 Z M386 298 C386 442.21 386 586.42 386 735 C450.1334375 735.0928125 450.1334375 735.0928125 515.5625 735.1875 C529.0107251 735.21481201 542.4589502 735.24212402 556.31469727 735.27026367 C568.47954445 735.28030341 568.47954445 735.28030341 580.64439392 735.28633118 C586.0189066 735.28910083 591.39332552 735.30005018 596.76780701 735.31672668 C667.18999337 735.52800773 735.76232259 731.47241716 790 681 C790.99966797 680.08154297 790.99966797 680.08154297 792.01953125 679.14453125 C812.75879449 659.33452217 827.22780466 631.99814976 836 605 C836.23412598 604.28924316 836.46825195 603.57848633 836.70947266 602.84619141 C840.42076473 591.42662769 843.01323388 579.83514441 845 568 C845.15243164 567.13052734 845.30486328 566.26105469 845.46191406 565.36523438 C850.74563579 533.89114252 850.63275737 498.41052127 845 467 C844.82307617 465.9884082 844.64615234 464.97681641 844.46386719 463.93457031 C835.47760289 413.94362504 811.80413039 366.70734003 770.1015625 336.12890625 C764.85469391 332.52746622 759.51496419 329.17528241 754 326 C752.31003906 325.01386719 752.31003906 325.01386719 750.5859375 324.0078125 C740.20935864 318.11944759 729.25062721 313.91097407 718 310 C716.92975586 309.62681641 716.92975586 309.62681641 715.83789062 309.24609375 C706.60995995 306.10734182 697.19308504 304.12630749 687.625 302.3125 C686.56265137 302.10987549 685.50030273 301.90725098 684.40576172 301.69848633 C665.62091513 298.30736739 647.19424286 297.71572903 628.1496582 297.77294922 C625.45402986 297.77356311 622.75841223 297.7733812 620.06278515 297.7722187 C613.62067438 297.77116468 607.17862036 297.78030766 600.73652409 297.79322136 C593.26912761 297.80773622 585.80176423 297.80921709 578.33435059 297.81079102 C558.66039153 297.8212516 538.98644489 297.84917413 519.3125 297.875 C453.3228125 297.936875 453.3228125 297.936875 386 298 Z "
     fill="#009FD7"
     transform="translate(3476,0)"
     id="path1"
     style="fill:#ffffff" />
  <path
     d="M0 0 C127.71 0 255.42 0 387 0 C387.01981934 31.99831787 387.03963867 63.99663574 387.06005859 96.96459961 C387.07358472 118.33381666 387.08714422 139.70303364 387.10116577 161.07225037 C387.10160655 161.74475281 387.10204732 162.41725525 387.10250145 163.11013655 C387.13292233 209.52212117 387.16605175 255.93410342 387.20132446 302.34608459 C387.20246954 303.8537466 387.20361461 305.36140861 387.20475969 306.86907061 C387.22880745 338.52002577 387.25326169 370.17098061 387.27818505 401.82193509 C387.29070572 417.72286548 387.30314833 433.62379593 387.31551713 449.52472644 C387.31738329 451.92321999 387.31925168 454.32171354 387.32112016 456.72020709 C387.34984934 493.62387424 387.37691156 530.52754167 387.39910889 567.43121338 C387.39958565 568.22379046 387.40006241 569.01636754 387.40055362 569.83296211 C387.40822953 582.61045617 387.41576467 595.38795031 387.42328111 608.16544446 C387.4449509 644.99915406 387.46767336 681.83286168 387.49726295 718.6665659 C387.49817625 719.80439822 387.49817625 719.80439822 387.499108 720.96521705 C387.51249744 737.62325975 387.52642145 754.28130197 387.54085055 770.9393438 C387.54664824 777.64348239 387.55236908 784.34762104 387.55806351 791.05175972 C387.55868856 791.78546709 387.55931362 792.51917446 387.55995762 793.27511539 C387.58000962 816.85740264 387.59382376 840.43968841 387.60431816 864.0219817 C387.61522759 888.47025406 387.63317685 912.9185117 387.65916704 937.36677282 C387.67391499 951.44373339 387.68322456 965.52067245 387.68456683 979.59764081 C387.6860136 989.02307647 387.69473654 998.44848801 387.70915592 1007.87391269 C387.71714843 1013.23023263 387.72218713 1018.58650531 387.71827881 1023.94283091 C387.66602659 1107.16657734 395.34850493 1197.03356237 456 1260 C456.68964844 1260.7528125 457.37929688 1261.505625 458.08984375 1262.28125 C498.91591605 1305.53651278 563.78145507 1319.00500338 620.6784668 1320.75488281 C666.51880154 1322.04941571 713.28939727 1315.843237 755 1296 C755.75361816 1295.64180176 756.50723633 1295.28360352 757.28369141 1294.91455078 C774.22567185 1286.71560787 789.13188011 1275.65861092 803 1263 C803.81855469 1262.25363281 804.63710938 1261.50726562 805.48046875 1260.73828125 C848.38739579 1219.65394934 863.07646104 1156.15491198 868.6875 1099.25 C868.80697998 1098.04448486 868.92645996 1096.83896973 869.04956055 1095.59692383 C870.64398531 1078.36536008 871.15026534 1061.11246505 871.1386652 1043.81473064 C871.14112114 1041.97738463 871.14400748 1040.14003915 871.14727798 1038.30269441 C871.15496055 1033.29913752 871.15661573 1028.29559483 871.1572054 1023.29203276 C871.15894867 1017.83158582 871.16644179 1012.37114612 871.17318195 1006.91070348 C871.18419537 997.35601047 871.19159359 987.80132006 871.19658089 978.24662209 C871.20401333 964.03928927 871.21710246 949.83196553 871.23132664 935.62463809 C871.25518939 911.72189564 871.27432617 887.81915131 871.29092598 863.91640282 C871.30737078 840.25696783 871.32585706 816.59753585 871.34705925 792.93810463 C871.34771764 792.20237355 871.34837604 791.46664248 871.34905439 790.70861652 C871.3550692 783.98849763 871.36110904 777.26837876 871.36717889 770.54825992 C871.38226517 753.84543551 871.39703779 737.14261083 871.41159725 720.43978596 C871.41226039 719.67931407 871.41292353 718.91884219 871.41360676 718.1353257 C871.44580941 681.17461036 871.47439755 644.21389234 871.50268555 607.25317383 C871.51249978 594.43265785 871.52233003 581.61214189 871.53222656 568.79162598 C871.53284036 567.99645798 871.53345416 567.20128997 871.53408656 566.38202597 C871.56266142 529.39205899 871.59380992 492.40209431 871.62561907 455.41212998 C871.627685 453.009664 871.62974983 450.60719802 871.63181442 448.20473204 C871.6454988 432.2829899 871.65922746 416.3612478 871.67298577 400.43950573 C871.70035921 368.76126274 871.72747249 337.08301953 871.75440695 305.40477616 C871.75568954 303.89629663 871.75697231 302.38781709 871.75825526 300.87933755 C871.79775877 254.43039814 871.83608859 207.98145788 871.8731842 161.53251648 C871.8742206 160.23539744 871.87525699 158.9382784 871.87632478 157.60185272 C871.91828116 105.06790239 871.95898289 52.53395107 872 0 C999.05 0 1126.1 0 1257 0 C1257.060397 125.57156463 1257.060397 125.57156463 1257.07608939 162.40500329 C1257.07667176 163.77184208 1257.07725489 165.13868088 1257.07783873 166.50551968 C1257.09807836 213.89376974 1257.11418698 261.2820202 1257.12702942 308.67027283 C1257.12744777 310.2098496 1257.12786613 311.74942638 1257.12828448 313.28900315 C1257.13705414 345.61112811 1257.14520411 377.93325319 1257.15263903 410.25537848 C1257.15637498 426.4938917 1257.16022989 442.7324049 1257.16419732 458.97091807 C1257.16479508 461.42030737 1257.16538943 463.86969667 1257.16598364 466.31908597 C1257.17515443 503.99849276 1257.1868635 541.67789664 1257.20599365 579.3572998 C1257.20640435 580.16631837 1257.20681505 580.97533694 1257.20723819 581.80887123 C1257.2138746 594.85113008 1257.2207257 607.89338881 1257.22760532 620.93564753 C1257.24743794 658.54016607 1257.26566092 696.14468234 1257.27341938 733.74920559 C1257.27357999 734.52390573 1257.27374059 735.29860588 1257.27390606 736.09678178 C1257.27740484 753.11083639 1257.28008872 770.12489101 1257.28200295 787.13894586 C1257.28278772 793.98673396 1257.28368959 800.83452203 1257.28463173 807.6823101 C1257.28473201 808.43173089 1257.28483229 809.18115167 1257.28493561 809.95328217 C1257.28821498 834.02639183 1257.30099411 858.09948475 1257.31884663 882.17258767 C1257.33681339 906.45916786 1257.34527791 930.74573186 1257.34087196 955.03231886 C1257.33815257 970.07975922 1257.34335894 985.12714908 1257.36239263 1000.17457973 C1257.37373243 1009.80232243 1257.37392839 1019.43002594 1257.36549544 1029.05777146 C1257.36101317 1034.52474674 1257.36096299 1039.99160829 1257.37464955 1045.45857085 C1257.55550847 1122.34356359 1246.78131664 1197.40605945 1221 1270 C1220.6302002 1271.04704102 1220.26040039 1272.09408203 1219.87939453 1273.17285156 C1198.96060229 1331.79447432 1166.1987165 1386.51046242 1124.265625 1432.48828125 C1123.0274303 1433.86096951 1121.79567929 1435.24002794 1120.59741211 1436.64770508 C1115.56400251 1442.53534273 1110.14168876 1448.01062258 1104.6574707 1453.47290039 C1103.06541034 1455.05959946 1101.4787701 1456.65157742 1099.89257812 1458.24414062 C1094.43462228 1463.70598454 1088.90155769 1469.01447505 1083 1474 C1081.99022658 1474.87684603 1080.98107269 1475.75440622 1079.97265625 1476.6328125 C1071.2432714 1484.10844677 1062.20976841 1491.12719002 1053 1498 C1052.28714844 1498.53383301 1051.57429688 1499.06766602 1050.83984375 1499.61767578 C979.71694797 1552.65328341 894.82295954 1584.98766444 722.68695068 1614.73571777 C720.15973409 1614.98428893 717.63382668 1615.24348587 715.10791016 1615.50488281 C658.23897525 1621.26275728 598.15504245 1620.90322384 541.29718018 1615.22784424 C538.96955398 1614.99698023 536.64104142 1614.77822211 534.31201172 1614.56201172 C448.55066382 1606.51316857 364.29192267 1585.54306684 287 1547 C285.95956543 1546.48179688 284.91913086 1545.96359375 283.84716797 1545.4296875 C248.26725608 1527.59305317 215.566091 1505.42735299 185 1480 C184.10716309 1479.2579834 184.10716309 1479.2579834 183.19628906 1478.50097656 C170.193631 1467.64488113 157.93907407 1456.00888234 145.9375 1444.0625 C145.24744873 1443.37712158 144.55739746 1442.69174316 143.84643555 1441.9855957 C139.92407328 1438.05082543 136.18556598 1434.00806272 132.55639648 1429.80151367 C130.60020329 1427.53723922 128.58262841 1425.33224805 126.5625 1423.125 C122.16102325 1418.240253 118.04058146 1413.18528653 114 1408 C113.24074219 1407.03578125 112.48148438 1406.0715625 111.69921875 1405.078125 C51.65715967 1328.08639374 17.45833075 1235.5448786 -0.36679858 1039.30513016 C-0.35628406 1033.74349863 -0.36364768 1028.18188186 -0.36853105 1022.62024641 C-0.37468974 1012.91733859 -0.36992955 1003.21448651 -0.35761642 993.51158524 C-0.33935933 979.08419482 -0.33861796 964.65683016 -0.34124239 950.22943192 C-0.34544239 925.94921402 -0.33525116 901.66901984 -0.31719017 877.3888092 C-0.29936952 853.37386456 -0.28785429 829.35893009 -0.28463173 805.34397888 C-0.28452849 804.5957383 -0.28442526 803.84749772 -0.28431889 803.07658318 C-0.28337918 796.2416758 -0.28251612 789.40676842 -0.28174497 782.57186102 C-0.27982779 765.5877199 -0.27695044 748.60357903 -0.27341938 731.61943817 C-0.27325943 730.84636667 -0.27309948 730.07329518 -0.27293468 729.27679727 C-0.26508679 691.75191051 -0.24617101 654.22703045 -0.22631836 616.70214844 C-0.21944283 603.69453944 -0.21261649 590.68693042 -0.20599365 577.67932129 C-0.2055828 576.87249113 -0.20517196 576.06566097 -0.20474866 575.23438142 C-0.18568522 537.66471171 -0.17452961 500.09504085 -0.16538927 462.52536758 C-0.16479508 460.08366437 -0.1641975 457.64196117 -0.16359923 455.20025796 C-0.15963958 439.01776407 -0.15581568 422.83527014 -0.15208265 406.65277618 C-0.14465485 374.45886532 -0.13642988 342.26495468 -0.12765651 310.07104416 C-0.12723879 308.53819199 -0.12682162 307.00533982 -0.12640502 305.47248764 C-0.11357998 258.29566234 -0.09716043 211.11883933 -0.07695007 163.9420166 C-0.0763874 162.62520613 -0.07582473 161.30839566 -0.075245 159.95168184 C-0.0524074 106.63445352 -0.02572003 53.31722699 0 0 Z "
     fill="#009FD8"
     transform="translate(6191,0)"
     id="path2"
     style="fill:#ffffff" />
  <path
     d="M0 0 C363.99 0 727.98 0 1103 0 C1103 98.34 1103 196.68 1103 298 C866.39 298 629.78 298 386 298 C386 408.55 386 519.1 386 633 C585.65 633 785.3 633 991 633 C991 727.71 991 822.42 991 920 C791.35 920 591.7 920 386 920 C386 1045.4 386 1170.8 386 1300 C621.62 1300 857.24 1300 1100 1300 C1100 1398.01 1100 1496.02 1100 1597 C737 1597 374 1597 0 1597 C0 1069.99 0 542.98 0 0 Z "
     fill="#009FD7"
     transform="translate(4940,0)"
     id="path3"
     style="fill:#ffffff" />
  <path
     d="M0 0 C440.55 0 881.1 0 1335 0 C1335 98.34 1335 196.68 1335 298 C1176.93 298 1018.86 298 856 298 C856 726.67 856 1155.34 856 1597 C728.95 1597 601.9 1597 471 1597 C469.16321664 1595.16321664 469.87570501 1592.58322759 469.86819885 1590.13844776 C469.87196216 1588.85864494 469.87196216 1588.85864494 469.8758015 1587.55298752 C469.87388437 1586.19902039 469.87388437 1586.19902039 469.87192852 1584.81770039 C469.86882892 1581.74698478 469.87295107 1578.67631914 469.87695217 1575.60560513 C469.87621351 1573.39079394 469.87503596 1571.17598287 469.87345567 1568.96117213 C469.87036484 1562.81632322 469.8735797 1556.67149065 469.87773381 1550.52664294 C469.88079795 1544.54968581 469.87916614 1538.57273049 469.87765024 1532.59577318 C469.8746779 1520.21301695 469.87646491 1507.83026541 469.88079453 1495.44750977 C469.88516563 1482.89094552 469.88736792 1470.33438371 469.88689232 1457.77781868 C469.88686363 1456.98608678 469.88683493 1456.19435487 469.88680537 1455.3786311 C469.88664901 1451.34191432 469.88645706 1447.30519754 469.88625254 1443.26848076 C469.88484332 1414.01564026 469.88828182 1384.76280192 469.89426994 1355.50996208 C469.90018788 1326.53093391 469.90404412 1297.55190666 469.90512276 1268.57287788 C469.90517437 1267.22403448 469.90517437 1267.22403448 469.90522704 1265.84794172 C469.90554022 1257.63514226 469.90582792 1249.42234279 469.90608501 1241.20954332 C469.90672449 1220.79138856 469.90768387 1200.37323382 469.90886021 1179.95507908 C469.90891352 1179.02517394 469.90896684 1178.09526881 469.90902177 1177.13718473 C469.91164472 1131.87783309 469.91795286 1086.61848206 469.92456055 1041.35913086 C469.92685216 1025.64870199 469.9291275 1009.93827312 469.93133545 994.22784424 C469.93154087 992.76634549 469.93154087 992.76634549 469.93175045 991.27532151 C469.93809189 946.00012626 469.94181926 900.72493091 469.94487024 855.44973534 C469.94506831 852.51124912 469.9452675 849.57276291 469.94546692 846.63427669 C469.94678668 827.16114321 469.94806133 807.68800973 469.94930578 788.21487625 C469.95178243 749.46656645 469.95452412 710.71825667 469.95744783 671.9699469 C469.95758707 670.12455747 469.95772612 668.27916804 469.95786499 666.43377861 C469.96214432 609.58084717 469.9676201 552.72791594 469.97434998 495.87498474 C469.97462081 493.58126519 469.97489164 491.28754564 469.97516237 488.99382609 C469.98271386 425.3292173 469.99151979 361.66460867 470 298 C314.9 298 159.8 298 0 298 C0 199.66 0 101.32 0 0 Z "
     fill="#009FD8"
     transform="translate(1980,0)"
     id="path4"
     style="fill:#ffffff" />
  <path
     d="M0 0 C1.7890625 0.91699219 1.7890625 0.91699219 3.625 2.046875 C4.32077148 2.47266846 5.01654297 2.89846191 5.73339844 3.3371582 C6.85536621 4.03651489 6.85536621 4.03651489 8 4.75 C9.18770996 5.48319458 9.18770996 5.48319458 10.39941406 6.23120117 C17.08251079 10.37899141 23.68178724 14.65262106 30.26489258 18.95678711 C36.37779959 22.95348538 42.52152619 26.89820177 48.6875 30.8125 C56.6355123 35.85871136 64.57260004 40.92146174 72.5 46 C80.32554761 51.01231277 88.15742172 56.01437619 96 61 C109.08143824 69.31691115 122.13315866 77.68014147 135.18652344 86.04101562 C147.01126165 93.61436653 158.8418762 101.17806767 170.69213867 108.71142578 C178.69991482 113.80407464 186.69224976 118.92068022 194.68359375 124.0390625 C201.44858611 128.37066453 208.22093267 132.69046323 215 137 C228.08143824 145.31691115 241.13315866 153.68014147 254.18652344 162.04101562 C265.11578947 169.04084643 276.04751388 176.0365413 287 183 C297.94974251 189.96171435 308.87837422 196.9561788 319.8046875 203.95458984 C323.01448668 206.00927333 326.22577186 208.0616145 329.4375 210.11328125 C330.50572998 210.79600098 331.57395996 211.4787207 332.67456055 212.18212891 C334.6574197 213.44931984 336.64061173 214.71599017 338.62426758 215.98193359 C340.5165647 217.1917121 342.39674728 218.42064686 344.26439977 219.66813499 C347.06774734 221.48627185 349.95009649 223.01369608 352.92940784 224.52429122 C366.22197477 231.62067089 366.22197477 231.62067089 369.15672737 237.19848539 C370.9541573 243.27404973 370.59987339 249.50513906 370.40509033 255.77302551 C370.41385115 257.86640136 370.4314125 259.95975561 370.45697021 262.05299377 C370.5016865 267.79325589 370.42181844 273.5260112 370.32145458 279.2653196 C370.2339243 285.55300243 370.26335894 291.84035627 370.27781296 298.12848186 C370.28722873 308.94290489 370.22597638 319.7543677 370.11151123 330.56803894 C369.94775467 346.0657848 369.90943454 361.56088806 369.89208984 377.05993652 C369.78713217 414.31125802 369.50790871 451.56192346 369.25 488.8125 C368.63125 613.6453125 368.63125 613.6453125 368 741 C123.14 741 -121.72 741 -374 741 C-374.495 657.819375 -374.99 574.63875 -375.5 488.9375 C-375.71849609 462.65730225 -375.93699219 436.37710449 -376.16210938 409.30053711 C-376.27050781 377.24914551 -376.27050781 377.24914551 -376.29064941 362.25221252 C-376.31451781 351.0689197 -376.41797287 339.88921408 -376.56016226 328.70704945 C-376.70328905 317.29658755 -376.75414862 305.8889829 -376.72267881 294.47741709 C-376.70822188 288.28561508 -376.73102892 282.10037913 -376.86116314 275.9097842 C-377.59916596 239.06084555 -377.59916596 239.06084555 -371.65278816 231.61807179 C-366.11887685 226.40317109 -360.04111261 223.50734789 -352.9019289 221.07903111 C-348.61614591 219.48543825 -345.08863896 217.05869974 -341.375 214.4375 C-340.0214503 213.54975668 -338.66503174 212.66635866 -337.3046875 211.7890625 C-336.6147168 211.34079102 -335.92474609 210.89251953 -335.21386719 210.43066406 C-330.9906615 207.7015082 -326.74430636 205.00867514 -322.5 202.3125 C-314.49012178 197.22366501 -306.49080985 192.11872744 -298.5 187 C-289.77922841 181.41434312 -281.0483493 175.84495935 -272.30859375 170.2890625 C-265.36397703 165.87248611 -258.43039479 161.43885409 -251.5 157 C-243.67439704 151.98777332 -235.84257859 146.985624 -228 142 C-215.98301647 134.35984741 -203.99119644 126.68053955 -192 119 C-179.11112236 110.74448229 -166.21781053 102.49636081 -153.30126953 94.28417969 C-142.18510642 87.2140684 -131.09351986 80.10556436 -120 73 C-107.11112236 64.74448229 -94.21781053 56.49636081 -81.30126953 48.28417969 C-74.42266328 43.90924284 -67.55312462 39.52027807 -60.6875 35.125 C-59.64899902 34.46016602 -58.61049805 33.79533203 -57.54052734 33.11035156 C-51.12872464 29.00481735 -44.71837152 24.89702485 -38.30859375 20.78833008 C-35.18583436 18.78894985 -32.05981489 16.79474284 -28.93359375 14.80078125 C-25.0540715 12.32407404 -21.19397676 9.82089851 -17.34765625 7.29296875 C-16.47286621 6.72416992 -15.59807617 6.15537109 -14.69677734 5.56933594 C-13.06942421 4.5110339 -11.44820986 3.44320807 -9.83447266 2.36425781 C-9.11952637 1.90245117 -8.40458008 1.44064453 -7.66796875 0.96484375 C-7.05203857 0.5587085 -6.4361084 0.15257324 -5.80151367 -0.26586914 C-3.43225043 -1.23136237 -2.37018441 -0.8908834 0 0 Z "
     fill="#009FD8"
     transform="translate(1228,856)"
     id="path5"
     style="fill:#ffffff" />
  <path
     d="M0 0 C244.53 0 489.06 0 741 0 C741.45375 83.20125 741.9075 166.4025 742.375 252.125 C742.67543213 291.55895264 742.67543213 291.55895264 742.98193359 331.78955078 C743.08129883 363.84545898 743.08129883 363.84545898 743.09976196 378.8432312 C743.12164621 390.03001492 743.21650137 401.21378742 743.3468154 412.39962398 C743.4779713 423.81224975 743.52464457 435.22247517 743.49578891 446.63602787 C743.48253221 452.82933839 743.50351479 459.01713315 743.62273288 465.20943093 C744.27748244 500.92803558 744.27748244 500.92803558 738.89521837 509.25718832 C733.92916471 514.18004676 728.47545917 516.73935808 721.90250516 518.90186667 C716.8823659 520.80118534 712.60304384 523.86824965 708.1875 526.875 C706.66769531 527.84179688 706.66769531 527.84179688 705.1171875 528.828125 C694.06485197 535.86466016 683.03299824 542.93320064 672 550 C659.11334724 558.25409264 646.22261592 566.50135689 633.30786133 574.71142578 C626.36346608 579.1278038 619.43014773 583.56130415 612.5 588 C603.77919067 593.58559813 595.04834949 599.15504052 586.30859375 604.7109375 C579.36397703 609.12751389 572.43039479 613.56114591 565.5 618 C557.67439704 623.01222668 549.84257859 628.014376 542 633 C529.98301647 640.64015259 517.99119644 648.31946045 506 656 C493.11334724 664.25409264 480.22261592 672.50135689 467.30786133 680.71142578 C460.36346608 685.1278038 453.43014773 689.56130415 446.5 694 C437.78363841 699.58274939 429.05767991 705.15003242 420.32177734 710.70214844 C413.24556778 715.20159059 406.1845222 719.72443394 399.125 724.25 C389.79037155 730.23242967 380.42310229 736.15795745 371 742 C363.48282248 737.75619843 356.19567619 733.24299114 348.96704102 728.53076172 C343.16951874 724.75166417 337.3422775 721.02200685 331.5 717.3125 C323.49000245 712.22385355 315.4908091 707.11872696 307.5 702 C299.67443111 696.98772072 291.84260823 691.98557678 284 687 C275.0938805 681.33834493 266.20321016 675.65285363 257.31640625 669.9609375 C250.55141389 665.62933547 243.77906733 661.30953677 237 657 C223.91856176 648.68308885 210.86684134 640.31985853 197.81347656 631.95898438 C185.98873835 624.38563347 174.1581238 616.82193233 162.30786133 609.28857422 C154.30008518 604.19592536 146.30775024 599.07931978 138.31640625 593.9609375 C131.55141404 589.62933556 124.77909311 585.30949606 118 581 C109.0938805 575.33834493 100.20321016 569.65285363 91.31640625 563.9609375 C84.55141389 559.62933547 77.77906733 555.30953677 71 551 C61.12519712 544.7218021 51.26674735 538.41831261 41.4140625 532.10546875 C37.58427517 529.65221372 33.75183265 527.20324578 29.91514587 524.76080322 C28.22204621 523.68285386 26.52952261 522.60400562 24.8371582 521.52490234 C22.72483299 520.17841904 20.61146494 518.83356963 18.49682617 517.49072266 C17.5297876 516.87374512 16.56274902 516.25676758 15.56640625 515.62109375 C14.31259155 514.82336548 14.31259155 514.82336548 13.03344727 514.00952148 C12.03240967 513.34637939 11.03137207 512.6832373 10 512 C8.79147824 511.4931737 8.79147824 511.4931737 7.55854189 510.97610849 C4.2775102 509.31795243 2.32908411 507.86997619 0 505 C-1.98809435 498.65344087 -1.30379597 491.55033809 -1.20254517 484.98646545 C-1.20692014 482.90243213 -1.21569071 480.81840416 -1.22848511 478.73440552 C-1.25094001 472.99410957 -1.21075333 467.25567501 -1.16072729 461.51561554 C-1.11711335 455.23598292 -1.13166983 448.95643844 -1.13890648 442.67669582 C-1.14362241 431.86801258 -1.11289305 421.0600675 -1.05575562 410.25157166 C-0.97402194 394.76293938 -0.95472588 379.2749678 -0.94604492 363.78601074 C-0.89352063 326.54472378 -0.7539097 289.3036009 -0.625 252.0625 C-0.41875 168.881875 -0.2125 85.70125 0 0 Z "
     fill="#009FD8"
     transform="translate(0,0)"
     id="path6"
     style="fill:#ffffff" />
  <path
     d="M0 0 C244.86 0 489.72 0 742 0 C742 263.67 742 527.34 742 799 C735.25912919 795.32316137 728.74005047 791.69782771 722.3125 787.5625 C720.65400112 786.50595251 718.99512891 785.44999087 717.3359375 784.39453125 C716.46936523 783.8423291 715.60279297 783.29012695 714.70996094 782.72119141 C709.96647606 779.7084375 705.2026563 776.7283201 700.4375 773.75 C699.43799316 773.12512695 698.43848633 772.50025391 697.40869141 771.85644531 C688.75165308 766.45282875 680.05814182 761.10938427 671.36108398 755.77050781 C664.28915738 751.42393785 657.2566754 747.02078301 650.24951172 742.57080078 C643.64043705 738.38313619 636.98040241 734.28070172 630.3125 730.1875 C616.84038187 721.91671739 603.43593419 713.54054093 590.04101562 705.14550781 C577.51482654 697.29702876 564.95752488 689.50305746 552.35986328 681.76977539 C545.29200163 677.42566507 538.26311194 673.02568988 531.26049805 668.57739258 C524.5455786 664.32182043 517.77583773 660.15772281 511 656 C503.46998569 651.37950679 495.95725373 646.73709991 488.5 642 C481.14480841 637.32885857 473.73810049 632.74582717 466.3125 628.1875 C452.84038187 619.91671739 439.43593419 611.54054093 426.04101562 603.14550781 C413.51482654 595.29702876 400.95752488 587.50305746 388.35986328 579.76977539 C381.29200163 575.42566507 374.26311194 571.02568988 367.26049805 566.57739258 C360.5455786 562.32182043 353.77583773 558.15772281 347 554 C339.46998569 549.37950679 331.95725373 544.73709991 324.5 540 C317.14480841 535.32885857 309.73810049 530.74582717 302.3125 526.1875 C288.84038187 517.91671739 275.43593419 509.54054093 262.04101562 501.14550781 C249.51482654 493.29702876 236.95752488 485.50305746 224.35986328 477.76977539 C217.29200163 473.42566507 210.26311194 469.02568988 203.26049805 464.57739258 C196.5455786 460.32182043 189.77583773 456.15772281 183 452 C174.71617281 446.91695955 166.46531809 441.78948653 158.26171875 436.578125 C151.54634377 432.32238481 144.77624289 428.15797141 138 424 C130.46998569 419.37950679 122.95725373 414.73709991 115.5 410 C108.14480841 405.32885857 100.73810049 400.74582717 93.3125 396.1875 C79.84038187 387.91671739 66.43593419 379.54054093 53.04101562 371.14550781 C41.91306355 364.17311596 30.77499296 357.21712176 19.60198975 350.31710815 C17.91743668 349.27622166 16.23433377 348.2329894 14.55126953 347.18969727 C13.52114746 346.55475342 12.49102539 345.91980957 11.4296875 345.265625 C10.52460449 344.70649414 9.61952148 344.14736328 8.68701172 343.57128906 C5.86239469 341.91953228 2.92667208 340.46333604 0 339 C0 227.13 0 115.26 0 0 Z "
     fill="#CCCCCC"
     transform="translate(854,0)"
     id="path7"
     style="fill:#ffffff" />
  <path
     d="M0 0 C3.77772222 1.51108889 6.62892679 2.88595281 10 5.01953125 C10.95841797 5.6228125 11.91683594 6.22609375 12.90429688 6.84765625 C13.92587891 7.49605469 14.94746094 8.14445313 16 8.8125 C18.17681863 10.18401397 20.35390669 11.5551004 22.53125 12.92578125 C23.62179688 13.61365723 24.71234375 14.3015332 25.8359375 15.01025391 C30.37540315 17.86493331 34.93632946 20.68423993 39.5 23.5 C48.0380358 28.77526316 56.55093221 34.08998312 65.05859375 39.4140625 C72.38431694 43.99617508 79.72668076 48.55064304 87.07739258 53.0925293 C93.62833583 57.14324409 100.15995295 61.2242138 106.6875 65.3125 C115.20393093 70.64572222 123.74860456 75.93085854 132.3125 81.1875 C140.49222909 86.20866635 148.63803245 91.27627985 156.73950195 96.42260742 C163.4544214 100.67817957 170.22416227 104.84227719 177 109 C185.28382719 114.08304045 193.53468191 119.21051347 201.73828125 124.421875 C208.45365623 128.67761519 215.22375711 132.84202859 222 137 C229.53001431 141.62049321 237.04274627 146.26290009 244.5 151 C251.85519159 155.67114143 259.26189951 160.25417283 266.6875 164.8125 C280.15961813 173.08328261 293.56406581 181.45945907 306.95898438 189.85449219 C319.48517346 197.70297124 332.04247512 205.49694254 344.64013672 213.23022461 C351.70799837 217.57433493 358.73688806 221.97431012 365.73950195 226.42260742 C372.4544214 230.67817957 379.22416227 234.84227719 386 239 C393.53001431 243.62049321 401.04274627 248.26290009 408.5 253 C415.85519159 257.67114143 423.26189951 262.25417283 430.6875 266.8125 C444.15961813 275.08328261 457.56406581 283.45945907 470.95898438 291.85449219 C483.48517346 299.70297124 496.04247512 307.49694254 508.64013672 315.23022461 C515.70799837 319.57433493 522.73688806 323.97431012 529.73950195 328.42260742 C536.4544214 332.67817957 543.22416227 336.84227719 550 341 C557.53001431 345.62049321 565.04274627 350.26290009 572.5 355 C579.85519159 359.67114143 587.26189951 364.25417283 594.6875 368.8125 C608.15961813 377.08328261 621.56406581 385.45945907 634.95898438 393.85449219 C647.48517346 401.70297124 660.04247512 409.49694254 672.64013672 417.23022461 C679.70435499 421.5720956 686.73005584 425.96914153 693.72851562 430.41601562 C701.59819475 435.40440932 709.54214725 440.27195885 717.4921875 445.13085938 C725.40635054 449.97939856 733.18727428 454.97753346 741 460 C741 571.87 741 683.74 741 799 C496.47 799 251.94 799 0 799 C0 535.33 0 271.66 0 0 Z "
     fill="#CCCCCC"
     transform="translate(0,798)"
     id="path8"
     style="fill:#ffffff" />
</svg>
