<?xml version="1.0" encoding="UTF-8" standalone="no"?>
<svg
   version="1.0"
   width="1759.7034pt"
   height="1620pt"
   viewBox="0 0 1759.7034 1620"
   preserveAspectRatio="xMidYMid"
   id="svg26"
   sodipodi:docname="vita.svg"
   inkscape:version="1.3 (0e150ed, 2023-07-21)"
   xmlns:inkscape="http://www.inkscape.org/namespaces/inkscape"
   xmlns:sodipodi="http://sodipodi.sourceforge.net/DTD/sodipodi-0.dtd"
   xmlns="http://www.w3.org/2000/svg"
   xmlns:svg="http://www.w3.org/2000/svg">
  <defs
     id="defs26" />
  <sodipodi:namedview
     id="namedview26"
     pagecolor="#505050"
     bordercolor="#ffffff"
     borderopacity="1"
     inkscape:showpageshadow="0"
     inkscape:pageopacity="0"
     inkscape:pagecheckerboard="1"
     inkscape:deskcolor="#505050"
     inkscape:document-units="pt"
     inkscape:zoom="0.6459854"
     inkscape:cx="188.08475"
     inkscape:cy="173.37853"
     inkscape:window-width="1312"
     inkscape:window-height="431"
     inkscape:window-x="0"
     inkscape:window-y="25"
     inkscape:window-maximized="0"
     inkscape:current-layer="svg26" />
  <g
     transform="matrix(0.6457627,0,0,-0.6457627,-532.75423,1722.6763)"
     fill="#000000"
     stroke="none"
     id="g26"
     style="fill:#ffffff">
    <path
       d="m 3083,2608 c -71,-99 -197,-228 -384,-391 -161,-140 -235,-224 -275,-313 -12,-28 -30,-54 -39,-58 -9,-3 -60,-3 -113,0 l -97,7 -67,-55 c -37,-31 -64,-58 -61,-62 14,-14 43,-4 93,30 52,35 53,36 99,23 39,-11 63,-30 162,-132 l 115,-120 106,50 105,50 5,74 c 9,135 70,222 273,389 50,41 96,81 103,90 25,29 42,78 34,99 -6,18 -25,4 -167,-120 -87,-77 -162,-143 -165,-147 -11,-15 -49,-31 -54,-24 -6,10 79,93 174,172 113,94 204,182 222,214 12,21 17,54 18,104 0,70 -12,95 -24,48 -8,-33 -70,-122 -125,-180 -25,-26 -102,-93 -171,-148 -69,-55 -169,-146 -222,-201 -53,-56 -100,-98 -103,-95 -24,24 106,164 274,296 122,96 185,154 233,214 58,71 113,195 106,239 -2,16 -14,5 -55,-53 z"
       id="path1"
       style="fill:#ffffff" />
    <path
       d="m 1225,2619 c 10,-57 65,-148 131,-218 44,-47 120,-107 232,-183 199,-134 298,-228 325,-305 10,-28 17,-62 15,-75 -4,-22 -5,-22 -12,-3 -45,113 -121,197 -267,295 -53,36 -129,87 -169,115 -94,64 -220,189 -244,243 -10,23 -23,42 -28,42 -4,0 -8,-25 -8,-55 0,-59 20,-119 48,-145 36,-33 160,-128 222,-170 183,-125 276,-221 338,-349 32,-66 35,-82 36,-160 l 1,-86 150,-90 c 83,-49 161,-98 175,-107 13,-10 33,-18 42,-18 14,0 11,7 -14,29 -30,27 -31,31 -18,45 14,14 21,12 67,-19 59,-40 63,-41 63,-20 0,8 -18,31 -40,51 -22,20 -40,45 -40,55 0,34 41,21 96,-31 29,-27 58,-50 63,-50 25,0 8,35 -41,87 -55,57 -66,85 -35,91 11,2 39,-20 79,-62 34,-36 70,-66 80,-66 38,0 31,10 -150,201 -79,84 -103,90 -172,47 -41,-26 -56,-30 -91,-25 -27,3 -52,15 -68,32 l -26,26 43,40 44,39 -16,46 c -36,105 -128,208 -306,338 -58,43 -118,87 -135,99 -124,92 -355,312 -355,337 0,6 -5,10 -10,10 -6,0 -8,-13 -5,-31 z"
       id="path2"
       style="fill:#ffffff" />
    <path
       d="m 1250,2255 c 0,-61 32,-93 217,-222 50,-35 113,-88 142,-118 66,-70 114,-169 113,-233 -1,-45 0,-48 40,-70 52,-28 61,-18 52,58 -6,56 -50,180 -63,180 -4,0 -13,11 -19,24 -6,14 -28,44 -49,67 -52,58 -200,172 -213,164 -6,-4 -9,-2 -8,3 4,12 -34,46 -87,80 -22,14 -42,28 -45,31 -3,3 -22,19 -42,34 l -38,28 z"
       id="path3"
       style="fill:#ffffff" />
    <path
       d="m 3055,2102 c -16,-15 -41,-35 -55,-45 -50,-35 -144,-134 -182,-192 -67,-103 -19,-81 128,58 42,39 82,76 90,80 18,10 64,89 64,110 0,24 -10,21 -45,-11 z"
       id="path4"
       style="fill:#ffffff" />
    <path
       d="m 1312,2068 c 13,-35 54,-81 113,-124 22,-16 42,-31 45,-35 33,-37 167,-125 177,-116 18,19 -125,165 -227,232 -41,27 -81,55 -88,62 -23,22 -31,14 -20,-19 z"
       id="path5"
       style="fill:#ffffff" />
    <path
       d="m 2960,1894 c -57,-57 -164,-137 -186,-137 -14,0 -27,-68 -15,-80 21,-21 201,159 250,251 6,12 10,22 9,22 -2,0 -28,-25 -58,-56 z"
       id="path6"
       style="fill:#ffffff" />
    <path
       d="m 1430,1876 c 55,-76 239,-230 256,-214 3,3 2,22 -1,42 -6,28 -13,37 -39,46 -34,11 -90,48 -187,125 l -64,50 z"
       id="path7"
       style="fill:#ffffff" />
    <path
       d="m 2002,1153 c -47,-23 -63,-47 -122,-185 -29,-68 -55,-126 -59,-131 -8,-8 -81,168 -81,196 0,14 -10,17 -57,17 -53,0 -55,-1 -40,-18 9,-9 46,-82 82,-162 37,-80 68,-146 70,-148 2,-2 12,16 23,40 142,321 179,383 234,400 21,5 21,6 3,7 -11,0 -35,-7 -53,-16 z"
       id="path8"
       style="fill:#ffffff" />
    <path
       d="m 2150,1031 c 0,-19 3,-21 14,-11 8,6 32,12 53,13 l 38,2 V 878 722 l 40,1 40,2 -3,149 c -2,95 0,151 7,155 5,4 29,5 51,3 31,-3 44,-10 50,-26 7,-18 9,-16 9,14 l 1,35 h -150 -150 z"
       id="path9"
       style="fill:#ffffff" />
    <path
       d="m 2010,1035 c 8,-10 11,-56 8,-163 l -3,-148 38,1 h 38 l 2,163 2,162 h -49 c -41,0 -47,-2 -36,-15 z"
       id="path10"
       style="fill:#ffffff" />
    <path
       d="m 2566,938 c -27,-62 -60,-135 -73,-162 -13,-28 -23,-51 -23,-52 0,0 10,-1 21,0 17,1 25,12 36,49 l 14,47 h 55 c 53,0 55,-1 69,-34 8,-19 12,-41 10,-48 -4,-10 8,-14 50,-14 31,0 54,2 52,5 -11,21 -109,226 -127,269 -12,28 -25,52 -29,52 -3,0 -28,-51 -55,-112 z m 53,-35 c 8,-21 16,-44 18,-50 4,-9 -8,-13 -40,-13 h -45 l 21,50 c 11,28 24,50 27,50 3,0 12,-17 19,-37 z"
       id="path11"
       style="fill:#ffffff" />
    <path
       d="m 825,241 c 0,-77 6,-83 67,-75 37,4 49,14 48,40 0,10 -1,33 -1,49 -1,43 -15,55 -68,55 h -46 z m 73,26 c 2,-10 -3,-17 -12,-17 -10,0 -16,9 -16,21 0,24 23,21 28,-4 z m 7,-57 c 0,-8 -8,-16 -17,-18 -13,-2 -18,3 -18,18 0,15 5,20 18,18 9,-2 17,-10 17,-18 z"
       id="path12"
       style="fill:#ffffff" />
    <path
       d="m 1000,301 c 0,-6 5,-13 10,-16 14,-9 13,-92 -2,-97 -28,-10 6,-24 54,-24 47,1 53,4 56,24 2,12 -1,22 -7,22 -6,0 -11,-4 -11,-10 0,-5 -9,-10 -20,-10 -11,0 -20,7 -20,15 0,8 9,15 20,15 11,0 20,7 20,15 0,9 -9,15 -24,15 -19,0 -23,4 -19,21 3,12 11,18 19,15 8,-3 21,-9 29,-12 11,-4 15,0 15,15 0,19 -6,21 -60,21 -33,0 -60,-4 -60,-9 z"
       id="path13"
       style="fill:#ffffff" />
    <path
       d="m 1180,289 c 0,-18 4,-20 25,-15 24,6 25,4 25,-37 0,-24 -5,-48 -12,-55 -7,-7 -8,-13 -2,-13 5,-1 21,-3 36,-5 29,-3 46,10 28,21 -5,3 -10,27 -10,52 0,43 1,45 25,39 20,-5 25,-3 25,14 0,18 -6,20 -70,20 -65,0 -70,-2 -70,-21 z"
       id="path14"
       style="fill:#ffffff" />
    <path
       d="m 1380,301 c 0,-6 5,-13 10,-16 14,-8 13,-95 -1,-95 -22,0 -2,-24 23,-27 27,-4 46,11 28,22 -12,7 -13,35 -2,35 5,0 15,-11 22,-25 7,-14 22,-25 32,-25 22,0 23,9 3,37 -13,18 -13,22 0,33 18,15 19,42 3,58 -14,14 -118,16 -118,3 z m 88,-34 c 2,-10 -3,-17 -11,-17 -16,0 -30,24 -19,34 10,10 27,1 30,-17 z"
       id="path15"
       style="fill:#ffffff" />
    <path
       d="m 1570,301 c 0,-6 5,-13 10,-16 14,-8 13,-95 -1,-95 -6,0 -9,-6 -6,-12 2,-8 24,-13 60,-13 53,-1 57,1 57,22 0,13 -4,23 -10,23 -5,0 -10,-5 -10,-11 0,-13 -40,-8 -43,6 -1,6 8,11 21,13 27,4 30,32 2,32 -14,0 -20,7 -20,21 0,15 4,19 15,15 8,-3 22,-9 30,-12 11,-4 15,0 15,15 0,19 -6,21 -60,21 -33,0 -60,-4 -60,-9 z"
       id="path16"
       style="fill:#ffffff" />
    <path
       d="m 1758,258 c 2,-29 9,-61 14,-70 12,-24 54,-33 83,-20 25,12 30,25 38,100 5,40 4,42 -22,42 -27,0 -28,-1 -23,-55 4,-45 1,-56 -13,-61 -10,-4 -21,-1 -26,7 -12,19 -11,89 1,89 6,0 10,5 10,10 0,6 -15,10 -34,10 h -33 z"
       id="path17"
       style="fill:#ffffff" />
    <path
       d="m 1968,258 c 2,-29 9,-61 14,-70 12,-24 54,-33 83,-20 25,12 30,25 38,100 5,40 4,42 -22,42 -27,0 -27,0 -23,-60 4,-55 3,-60 -16,-60 -11,0 -23,7 -26,16 -10,25 -7,84 4,84 6,0 10,5 10,10 0,6 -15,10 -34,10 h -33 z"
       id="path18"
       style="fill:#ffffff" />
    <path
       d="m 2176,238 c 1,-65 3,-73 20,-73 16,0 19,7 16,40 l -3,40 40,-45 c 26,-30 43,-42 49,-35 6,6 12,40 14,78 l 4,67 h -28 c -28,0 -37,-13 -18,-25 6,-3 10,-18 10,-32 0,-25 -1,-25 -32,15 -19,25 -41,42 -53,42 -18,0 -20,-6 -19,-72 z"
       id="path19"
       style="fill:#ffffff" />
    <path
       d="m 2398,293 c -57,-65 -8,-143 78,-127 31,6 34,10 34,40 0,30 -3,34 -25,34 -22,0 -25,-3 -19,-25 5,-21 3,-25 -15,-25 -14,0 -25,9 -31,26 -13,34 -13,40 6,59 15,14 18,14 40,0 31,-20 34,-19 34,10 0,23 -4,25 -43,25 -29,0 -49,-6 -59,-17 z"
       id="path20"
       style="fill:#ffffff" />
    <path
       d="m 2580,295 c -18,-22 -8,-47 29,-72 28,-19 31,-24 17,-29 -10,-4 -22,-2 -29,5 -17,17 -27,13 -27,-9 0,-47 101,-31 108,18 3,17 -5,26 -32,39 -20,9 -36,23 -36,30 0,16 22,17 38,1 14,-14 38,4 28,21 -10,16 -82,13 -96,-4 z"
       id="path21"
       style="fill:#ffffff" />
    <path
       d="m 2730,301 c 0,-6 5,-13 11,-17 6,-3 9,-29 7,-62 -3,-54 -3,-55 25,-56 25,-2 27,1 22,23 -7,26 9,43 32,34 16,-6 17,-30 1,-36 -19,-6 -7,-15 27,-21 l 30,-5 v 74 75 h -32 c -34,0 -41,-8 -22,-27 15,-15 3,-33 -23,-33 -17,0 -20,4 -14,30 5,29 4,30 -29,30 -19,0 -35,-4 -35,-9 z"
       id="path22"
       style="fill:#ffffff" />
    <path
       d="m 2955,236 v -73 l 30,3 c 17,1 32,3 35,3 2,1 -1,6 -8,13 -14,14 -16,94 -2,103 20,13 9,25 -22,25 h -33 z"
       id="path23"
       style="fill:#ffffff" />
    <path
       d="m 3070,301 c 0,-6 5,-13 11,-17 8,-4 10,-27 6,-65 l -5,-58 42,4 c 22,1 47,3 54,4 6,1 12,10 12,21 0,21 -15,27 -25,10 -3,-5 -13,-10 -22,-10 -13,0 -15,10 -11,60 l 4,60 h -33 c -18,0 -33,-4 -33,-9 z"
       id="path24"
       style="fill:#ffffff" />
    <path
       d="m 3255,238 v -73 l 33,-1 c 21,-1 32,3 32,12 0,8 -4,14 -10,14 -5,0 -10,7 -10,15 0,9 9,15 25,15 16,0 25,6 25,15 0,9 -10,15 -26,15 -19,0 -25,4 -22,18 2,9 11,15 19,13 8,-2 22,-6 33,-9 14,-4 17,0 14,14 -3,15 -13,20 -58,22 l -55,3 z"
       id="path25"
       style="fill:#ffffff" />
    <path
       d="m 3420,300 c 0,-5 5,-10 11,-10 8,0 10,-20 6,-65 l -5,-66 57,5 c 31,3 57,5 59,5 1,1 2,10 2,21 0,21 -15,27 -25,10 -11,-18 -47,-12 -43,8 2,10 11,16 21,14 10,-2 17,4 17,13 0,8 -9,15 -20,15 -14,0 -20,7 -20,21 0,16 4,19 18,14 44,-18 51,-18 45,4 -5,18 -13,21 -64,21 -33,0 -59,-4 -59,-10 z"
       id="path26"
       style="fill:#ffffff" />
  </g>
</svg>
