<?xml version="1.0" encoding="UTF-8" standalone="no"?>
<!-- Generator: Adobe Illustrator 19.2.1, SVG Export Plug-In . SVG Version: 6.00 Build 0)  -->

<svg
   version="1.1"
   id="layer"
   x="0px"
   y="0px"
   viewBox="0 0 6683.6846 1588.6612"
   xml:space="preserve"
   sodipodi:docname="volksbank.svg"
   width="6683.6846"
   height="1588.6611"
   inkscape:version="1.3 (0e150ed, 2023-07-21)"
   xmlns:inkscape="http://www.inkscape.org/namespaces/inkscape"
   xmlns:sodipodi="http://sodipodi.sourceforge.net/DTD/sodipodi-0.dtd"
   xmlns="http://www.w3.org/2000/svg"
   xmlns:svg="http://www.w3.org/2000/svg"><defs
   id="defs5" /><sodipodi:namedview
   id="namedview5"
   pagecolor="#505050"
   bordercolor="#ffffff"
   borderopacity="1"
   inkscape:showpageshadow="0"
   inkscape:pageopacity="0"
   inkscape:pagecheckerboard="1"
   inkscape:deskcolor="#505050"
   inkscape:zoom="0.063986657"
   inkscape:cx="-1492.4987"
   inkscape:cy="1250.2607"
   inkscape:window-width="1312"
   inkscape:window-height="431"
   inkscape:window-x="0"
   inkscape:window-y="25"
   inkscape:window-maximized="0"
   inkscape:current-layer="layer" />&#10;<style
   type="text/css"
   id="style1">&#10;	.st0{fill:#FFFFFF;}&#10;	.st1{fill:#FF6600;}&#10;	.st2{fill:#0066B3;}&#10;</style>&#10;&#10;&#10;&#10;<g
   id="g4"
   transform="matrix(15.789474,0,0,15.789474,-3186.3159,-4320.0001)"
   style="fill:#ffffff">&#10;	<path
   class="st2"
   d="m 209.5,276.9 h -7.7 l 12.3,37.5 h 8.9 l 12.2,-37.5 h -7.1 l -6.4,20.9 c -1,3.3 -1.9,6.5 -2.8,9.8 -0.5,-1.8 -0.9,-3.2 -1.5,-5 -0.5,-1.9 -0.9,-3.3 -1.5,-5.2 z m 39.2,9.2 c -2.6,0 -5.1,0.7 -7.4,1.9 -0.9,0.6 -1.7,1.2 -2.5,1.9 -2.6,2.8 -4.1,6.6 -4,10.5 -0.3,6 3.3,11.5 8.9,13.6 1.6,0.5 3.3,0.8 5,0.8 1.8,0 3.7,-0.3 5.4,-0.9 5.4,-2.2 8.8,-7.6 8.4,-13.4 0,-1.3 -0.1,-2.6 -0.4,-3.8 -0.9,-4.1 -3.6,-7.6 -7.4,-9.4 -1.9,-0.9 -4,-1.3 -6,-1.2 z m 0.1,5.3 c 1.6,0 3.1,0.6 4.1,1.8 1.6,1.9 2.4,4.4 2.3,6.9 0.3,2.8 -0.5,5.6 -2.4,7.8 -1,1.1 -2.5,1.7 -4,1.7 -0.9,0 -1.9,-0.2 -2.7,-0.7 -0.8,-0.4 -1.4,-1 -1.9,-1.7 -1.4,-2 -2.1,-4.4 -1.9,-6.9 -0.2,-2.7 0.7,-5.4 2.6,-7.3 0.5,-0.5 1.2,-0.9 1.8,-1.1 0.6,-0.4 1.3,-0.6 2.1,-0.5 z m 19.6,-17.6 v 40.5 h 6.9 v -40.5 z m 21.2,0 h -6.8 v 40.5 h 6.8 v -13.8 c 1.2,2 2.1,3.4 3.4,5.3 l 5.8,8.5 h 8.4 L 296,298.7 306,286.5 h -8 l -6,7.8 c -1,1.2 -1.6,2.1 -2.5,3.4 z m 37.1,13.4 c -2.3,-0.6 -4.7,-1 -7,-1 -3.1,-0.1 -6.1,0.9 -8.4,2.9 -1.5,1.5 -2.3,3.5 -2.3,5.6 0,1.8 0.6,3.6 1.7,5 2,1.8 4.4,3.1 7,3.7 1.2,0.5 3.2,1.1 3.2,2.9 0,1.8 -1.9,3 -4.8,3 -2.3,-0.1 -4.6,-0.7 -6.6,-1.8 l -0.4,6 c 2.5,0.8 5.2,1.2 7.8,1.2 1.7,0 3.4,-0.2 5.1,-0.7 1.7,-0.6 3.1,-1.7 4.2,-3.2 1.1,-1.4 1.7,-3.2 1.6,-5.1 0.1,-3 -1.6,-5.9 -4.3,-7.2 -0.8,-0.3 -1.9,-0.7 -3.7,-1.2 -1.2,-0.4 -2.4,-0.9 -3.5,-1.7 -0.4,-0.3 -0.6,-0.8 -0.7,-1.4 0,-1.9 1.9,-2.9 4.8,-2.9 2,0.1 3.9,0.4 5.7,1 z m 6.8,-13.4 v 40.5 h 6.6 V 310 c 0.3,0.6 0.6,1.2 1,1.7 1.8,2.1 4.5,3.2 7.3,3 1.6,0 3.1,-0.4 4.5,-1 0.8,-0.3 1.6,-0.8 2.3,-1.5 3.2,-3.3 4.7,-7.8 4.3,-12.3 0,-2 -0.2,-4 -0.8,-5.9 -0.9,-4.8 -5.3,-8.2 -10.2,-8 -2.6,-0.1 -5.2,1 -6.9,2.9 -0.5,0.5 -0.9,1.2 -1.3,1.8 v -17.1 h -6.8 z m 13.3,18.1 c 1.4,0 2.6,0.6 3.6,1.6 0.5,0.5 0.8,1.1 1.1,1.7 0.7,1.6 1.1,3.4 1.1,5.2 0.1,2.7 -0.9,5.4 -2.7,7.4 -0.9,0.8 -2,1.3 -3.2,1.2 -1.5,0.1 -3,-0.5 -3.9,-1.7 -0.6,-0.5 -1,-1.2 -1.3,-1.9 -0.7,-1.5 -1,-3.1 -1,-4.7 0,-2.5 0.7,-6.8 4.3,-8.3 0.6,-0.3 1.3,-0.4 2,-0.5 z m 40.9,22.5 c -0.1,-3.4 -0.2,-5.8 -0.2,-9.1 v -6.5 c 0.1,-2.2 -0.1,-4.4 -0.6,-6.5 -0.5,-1.3 -1.3,-2.5 -2.3,-3.5 -2.4,-1.9 -5.5,-2.8 -8.6,-2.6 -3.1,0 -6.2,0.6 -9.1,1.9 l 0.2,6.2 c 0.8,-0.7 1.7,-1.3 2.7,-1.7 1.7,-0.8 3.5,-1.2 5.4,-1.2 h 0.6 c 1.7,-0.1 3.3,0.7 4.3,2 0.7,1.2 1,2.6 1,4.1 -1.3,-0.1 -2.3,-0.1 -3.6,-0.1 h -0.3 c -5.3,0 -8.9,1 -11,3 -3.4,3.2 -3.5,8.6 -0.2,12 1.7,1.8 4.1,2.7 6.6,2.6 2.1,0.1 4.2,-0.4 6,-1.5 1.2,-0.7 2.3,-1.8 2.9,-3 v 4.1 z m -6.3,-12.5 c 0,0 -0.1,1.2 -0.2,2 -0.2,3.4 -2.9,6 -6.3,6.1 -2,0.2 -3.9,-1.2 -4.1,-3.3 0,-0.2 0,-0.4 0,-0.6 0,-0.6 0.1,-1.2 0.3,-1.7 1.2,-2.1 3.9,-2.7 7.6,-2.7 0.9,0 1.8,0.1 2.7,0.2 z m 38.3,12.5 v -14.2 c -0.1,-5.1 -0.1,-8 -1.7,-10.3 -0.6,-0.9 -1.3,-1.8 -2.3,-2.4 -1.6,-0.9 -3.4,-1.4 -5.2,-1.4 -2,-0.1 -3.9,0.4 -5.6,1.5 -1,0.5 -1.8,1.2 -2.6,2 -0.3,0.5 -0.7,0.8 -1,1.2 v -4.3 h -6.6 c 0.1,2.5 0.1,4.2 0.1,6.7 v 21.1 h 7 v -13 c 0,-3.3 0.2,-6.2 2.7,-8.1 0.9,-0.9 2.2,-1.3 3.5,-1.2 0.7,0 1.3,0.1 1.9,0.3 0.9,0.5 1.6,1.2 2.1,2 0.8,2.1 1.1,4.3 0.9,6.5 v 13.4 h 6.8 z M 434,273.8 h -6.9 v 40.5 h 6.9 v -13.8 c 1.2,2 1.9,3.4 3.2,5.3 l 5.8,8.5 h 8.6 l -11.2,-15.6 9.9,-12.2 h -7.9 l -6.1,7.8 c -0.9,1.2 -1.5,2.1 -2.4,3.4 z m 44.3,29.2 c 0.1,-0.9 0.1,-1.9 0.1,-2.8 0,-7.4 -3.4,-14.1 -12,-14.1 -3.8,-0.1 -7.4,1.5 -9.7,4.5 -0.4,0.4 -0.7,0.9 -1,1.4 0,0.1 -0.5,1 -0.8,1.6 -1,2.3 -1.5,4.8 -1.4,7.3 0,7.4 3.8,11.4 8,13.1 1.9,0.7 3.9,1 6,1 3.2,0 6.3,-0.7 9.2,-2 l -0.1,-6.2 c -0.7,0.4 -1.3,0.8 -2.1,1.1 -1.9,1 -4.1,1.6 -6.3,1.6 -2.9,0.1 -5.6,-1.3 -7,-3.7 -0.5,-0.8 -0.8,-1.8 -1,-2.7 z m -18.1,-5.1 c 0,-1.4 0.5,-2.8 1.2,-4.1 1.1,-1.7 3,-2.7 5,-2.7 1.7,0 3.4,0.8 4.3,2.3 0.9,1.3 1.3,2.9 1.3,4.5 z m 48.9,16.5 v -14.2 c -0.1,-5.1 -0.2,-8 -1.7,-10.3 -0.6,-0.9 -1.4,-1.7 -2.3,-2.4 -1.6,-1 -3.4,-1.4 -5.3,-1.4 -2,-0.1 -3.9,0.4 -5.6,1.5 -1,0.5 -1.8,1.2 -2.5,2 -0.4,0.5 -0.6,0.8 -1.1,1.2 v -4.3 H 484 c 0.1,2.5 0.2,4.2 0.2,6.7 v 21.1 h 6.9 v -13 c 0.1,-3.3 0.2,-6.2 2.7,-8.1 0.9,-0.9 2.2,-1.3 3.5,-1.2 0.7,0 1.4,0.1 2.1,0.3 0.9,0.4 1.5,1.2 1.9,2 0.8,2.1 1.1,4.3 0.9,6.5 v 13.4 h 6.9 z"
   id="path4"
   style="fill:#ffffff" />&#10;</g>&#10;<g
   id="g5"
   transform="matrix(15.789474,0,0,15.789474,-3186.3159,-4320.0001)"
   style="fill:#ffffff">&#10;	<path
   class="st2"
   d="m 228.3,359.6 c -0.5,-1.5 -1.5,-3.8 -3.4,-4.5 -0.4,-0.1 -0.9,-0.2 -1.3,-0.2 1.2,-0.1 2.3,-0.4 3.4,-0.9 0.4,-0.1 0.8,-0.4 1.1,-0.7 2.3,-1.7 3.5,-4.4 3.4,-7.2 0,-1.7 -0.3,-3.3 -1.1,-4.8 -0.3,-0.6 -0.7,-1.2 -1.2,-1.7 -3,-3.3 -8.2,-3.3 -11.4,-3.3 h -11 v 37.4 h 7.3 v -15.6 c 1.3,0 2.6,0 3.9,0.1 0.5,0.2 1,0.4 1.5,0.7 1.4,1.6 2.4,3.4 2.9,5.4 l 3.5,9.4 h 8 z M 214,342 h 3.4 c 0.5,0 0.8,0.1 1.3,0.1 1.7,-0.1 3.4,0.6 4.4,1.9 0.6,0.8 0.9,1.8 0.9,2.8 0,1 -0.3,2 -0.9,2.9 -1.4,1.8 -3.6,2.7 -5.8,2.4 H 214 Z m 46.7,31.6 c -0.1,-3.4 -0.2,-5.8 -0.2,-9 v -6.7 c 0.1,-2.2 -0.1,-4.4 -0.7,-6.5 -0.5,-1.3 -1.3,-2.5 -2.3,-3.5 -2.4,-1.9 -5.5,-2.8 -8.6,-2.6 -3.1,0 -6.2,0.6 -9.1,1.9 l 0.2,6.2 c 0.8,-0.7 1.7,-1.3 2.7,-1.7 1.7,-0.8 3.5,-1.2 5.4,-1.2 h 0.7 c 1.7,-0.1 3.3,0.7 4.3,2 0.7,1.2 1,2.6 1,4.1 -1.3,-0.1 -2.3,-0.1 -3.6,-0.1 h -0.3 c -5.3,0 -8.9,1 -11,3 -3.4,3.2 -3.5,8.6 -0.2,12 1.7,1.8 4.1,2.7 6.6,2.6 2.1,0.1 4.2,-0.4 6,-1.5 1.2,-0.7 2.3,-1.8 2.9,-3 v 4.1 z m -6.3,-12.5 c 0,0 -0.1,1.2 -0.2,2 -0.2,3.4 -2.9,6 -6.3,6.1 -2.1,0.2 -4,-1.2 -4.2,-3.3 0,-0.1 0,-0.3 0,-0.4 0,-0.6 0.1,-1.3 0.4,-1.8 1.2,-2.1 3.9,-2.7 7.6,-2.7 0.9,-0.1 1.8,0 2.7,0.1 z m 13.4,-27 v 6.7 h 6.9 v -6.7 z m 0,11.7 v 27.7 h 6.9 v -27.7 z m 29.9,-12.4 c -1.2,-0.3 -2.5,-0.4 -3.8,-0.5 -1.6,0 -3.3,0.3 -4.8,1 -2,0.9 -3.5,2.7 -4,4.8 -0.6,2.3 -0.8,4.6 -0.8,7 h -5.2 v 5.4 h 5.2 v 22.3 h 6.9 v -22.3 h 6 v -5.4 h -6 c 0,-2.8 0.1,-4.7 1.3,-6 0.7,-0.7 1.7,-1.1 2.7,-1 0.7,0.1 1.3,0.2 1.9,0.3 z m 20.6,0 c -1.2,-0.3 -2.5,-0.4 -3.8,-0.5 -1.6,0 -3.3,0.3 -4.8,1 -2,0.9 -3.5,2.7 -4,4.8 -0.6,2.3 -0.8,4.6 -0.8,7 h -5.2 v 5.4 h 5.2 v 22.3 h 6.9 v -22.3 h 6 v -5.4 h -6 c 0,-2.8 0.1,-4.7 1.3,-6 0.7,-0.7 1.7,-1.1 2.7,-1 0.7,0.1 1.3,0.2 1.9,0.3 z m 27.2,28.8 v -2.8 c 0,-7.4 -3.4,-14.1 -11.9,-14.1 -3.8,-0.2 -7.4,1.5 -9.7,4.5 -0.4,0.4 -0.8,0.8 -1,1.4 -0.1,0.1 -0.5,1 -0.9,1.6 -1,2.3 -1.5,4.8 -1.4,7.3 0,7.4 3.8,11.4 8,13.1 1.9,0.7 3.9,1 6,1 3.2,0.1 6.3,-0.6 9.2,-2 l -0.1,-6.2 c -0.1,0.1 -1.2,0.8 -1.9,1.2 -2,1 -4.1,1.5 -6.3,1.5 -2.9,0.2 -5.7,-1.2 -7.1,-3.7 -0.4,-0.9 -0.8,-1.8 -1,-2.7 z m -18.2,-5.1 c 0.2,-1.4 0.6,-2.8 1.3,-4.1 1.1,-1.7 3,-2.7 5,-2.7 1.7,0 3.3,0.8 4.2,2.3 0.9,1.3 1.4,2.9 1.4,4.5 z m 23.9,-23 v 6.7 h 6.9 v -6.7 z m 0,11.7 v 27.7 h 6.9 v -27.7 z m 30.3,0.7 c -2.3,-0.7 -4.7,-1.1 -7,-1.1 -3.1,-0.1 -6.1,0.9 -8.6,2.9 -1.5,1.5 -2.3,3.5 -2.3,5.6 0,1.8 0.6,3.6 1.8,5 1.9,1.9 4.4,3.2 7,3.7 1.2,0.5 3.2,1.1 3.2,2.9 0,1.8 -1.9,3 -4.8,3 -2.3,-0.1 -4.6,-0.7 -6.7,-1.8 l -0.3,6 c 2.5,0.8 5.2,1.2 7.8,1.2 1.7,0 3.4,-0.2 5,-0.7 1.7,-0.6 3.2,-1.7 4.3,-3.2 1.1,-1.4 1.7,-3.2 1.6,-5.1 0,-3.1 -1.7,-5.9 -4.4,-7.2 -0.8,-0.3 -1.8,-0.7 -3.6,-1.2 -1.2,-0.4 -2.4,-0.9 -3.6,-1.6 -0.3,-0.4 -0.5,-0.9 -0.5,-1.5 0,-1.9 1.9,-2.9 4.8,-2.9 1.9,0.1 3.8,0.4 5.6,1 z m 30,15.7 c 0.1,-0.9 0.1,-1.9 0.1,-2.8 0,-7.4 -3.4,-14.1 -12,-14.1 -3.8,-0.1 -7.4,1.5 -9.7,4.5 -0.4,0.4 -0.7,0.9 -1,1.4 0,0.1 -0.5,1 -0.8,1.6 -1,2.3 -1.5,4.8 -1.4,7.3 0,7.4 3.8,11.4 8,13.1 1.9,0.7 3.9,1.1 6,1 3.2,0 6.3,-0.7 9.2,-2 l -0.1,-6.2 c -0.2,0.1 -1.2,0.8 -2.1,1.2 -2,1 -4.1,1.5 -6.3,1.5 -2.9,0.2 -5.6,-1.2 -7,-3.7 -0.5,-0.8 -0.8,-1.8 -1,-2.7 z m -18.1,-5.1 c 0,-1.4 0.5,-2.8 1.2,-4.1 1.1,-1.7 3,-2.7 5,-2.7 1.7,0 3.4,0.8 4.3,2.3 0.9,1.3 1.3,2.9 1.3,4.5 z m 48.9,16.5 v -14.2 c -0.1,-5.1 -0.2,-8 -1.7,-10.3 -0.6,-0.9 -1.4,-1.7 -2.3,-2.4 -1.6,-1 -3.4,-1.4 -5.3,-1.4 -2,0 -3.9,0.5 -5.6,1.5 -1,0.5 -1.8,1.2 -2.5,2 -0.4,0.5 -0.7,0.8 -1.1,1.2 v -4.3 h -6.7 c 0.1,2.5 0.2,4.2 0.2,6.7 v 21.1 h 6.9 v -13 c 0.1,-3.3 0.2,-6.2 2.7,-8.1 0.9,-0.9 2.2,-1.3 3.5,-1.2 0.7,0 1.4,0.1 2.1,0.5 0.9,0.4 1.6,1.1 1.9,1.9 0.8,2.1 1.1,4.3 0.9,6.5 v 13.4 z m 7.3,-40.5 v 40.5 h 6.5 v -4.3 c 0.1,0.1 0.5,1 1.1,1.7 1.8,2.1 4.5,3.3 7.3,3 1.6,0 3.1,-0.3 4.5,-0.9 0.8,-0.4 1.5,-1 2.2,-1.6 3.1,-3.3 4.8,-7.8 4.4,-12.3 0.1,-2 -0.2,-4 -0.9,-5.9 -0.9,-4.8 -5.2,-8.2 -10.1,-8 -2.7,-0.1 -5.2,1 -7,2.9 -0.3,0.5 -0.7,0.9 -1.2,1.8 v -17 z m 13.2,18 c 1.3,0.1 2.6,0.6 3.6,1.6 0.4,0.5 0.8,1.1 1.1,1.7 0.7,1.6 1,3.4 1,5.2 0.1,2.8 -0.8,5.5 -2.7,7.6 -2.2,1.7 -5.3,1.5 -7.1,-0.6 -0.5,-0.6 -0.9,-1.2 -1.2,-1.9 -0.7,-1.5 -1,-3.1 -1,-4.7 0,-2.5 0.6,-6.8 4.2,-8.3 0.7,-0.4 1.4,-0.5 2.1,-0.6 z m 40.9,22.5 c -0.1,-3.4 -0.1,-5.8 -0.1,-9 v -6.7 c 0.1,-2.2 -0.1,-4.4 -0.8,-6.5 -0.5,-1.3 -1.3,-2.5 -2.3,-3.5 -2.4,-1.9 -5.4,-2.8 -8.4,-2.6 -3.1,0 -6.2,0.6 -9.1,1.9 l 0.1,6.2 c 0.8,-0.7 1.7,-1.2 2.7,-1.7 1.7,-0.8 3.5,-1.2 5.4,-1.2 h 0.8 c 1.7,-0.1 3.3,0.7 4.3,2 0.7,1.2 1,2.6 1,4.1 -1.3,-0.1 -2.3,-0.1 -3.6,-0.1 h -0.3 c -5.3,0 -8.9,1 -11.2,3 -1.7,1.5 -2.6,3.7 -2.5,6 -0.1,3.4 1.6,8.6 9,8.6 2.1,0.1 4.2,-0.4 6,-1.5 1.2,-0.7 2.2,-1.8 2.9,-3 v 4.1 z m -6.3,-12.5 c 0,0.7 0,1.4 -0.1,2 -0.2,3.3 -2.9,6 -6.3,6.1 -2.1,0.2 -4,-1.2 -4.2,-3.3 0,-0.1 0,-0.3 0,-0.4 0,-0.6 0.1,-1.3 0.4,-1.8 1.2,-2.1 3.9,-2.7 7.6,-2.7 0.9,-0.1 1.8,0 2.6,0.1 z m 38.4,12.5 v -14.2 c -0.1,-5.1 -0.1,-8 -1.7,-10.3 -0.6,-1 -1.3,-1.8 -2.3,-2.4 -1.6,-0.9 -3.4,-1.4 -5.2,-1.4 -2,-0.1 -3.9,0.4 -5.6,1.5 -1,0.5 -1.9,1.2 -2.6,2 -0.4,0.4 -0.7,0.8 -1,1.2 v -4.3 h -6.7 c 0.1,2.5 0.2,4.2 0.2,6.7 v 21.1 h 6.9 v -13 c 0.1,-3.3 0.3,-6.2 2.7,-8.1 0.9,-0.9 2.2,-1.3 3.5,-1.2 0.7,0 1.4,0.1 2.1,0.5 0.9,0.4 1.6,1.1 1.9,1.9 0.8,2.1 1.1,4.3 1,6.5 v 13.4 z M 550,333.1 h -6.8 v 40.5 h 6.8 v -13.8 c 1.2,2 2.1,3.4 3.4,5.3 l 5.8,8.5 h 8.6 l -11.3,-15.6 10,-12.2 h -8 l -6,7.8 c -1,1.2 -1.6,2.1 -2.5,3.4 z m 44.5,29.1 v -2.8 c 0,-7.4 -3.4,-14.1 -11.9,-14.1 -3.8,-0.2 -7.4,1.5 -9.7,4.5 -0.4,0.4 -0.7,0.9 -1,1.4 -0.1,0.1 -0.5,1 -0.9,1.6 -0.9,2.3 -1.3,4.8 -1.3,7.3 0,7.4 3.7,11.4 7.9,13.1 1.9,0.7 4,1 6.1,1 3.1,0 6.3,-0.6 9.1,-2 V 366 c -0.2,0.1 -1.3,0.8 -2.1,1.2 -2,1 -4.1,1.5 -6.3,1.5 -2.9,0.2 -5.7,-1.2 -7.1,-3.7 -0.4,-0.9 -0.8,-1.8 -1,-2.7 z m -18.3,-5.1 c 0.2,-1.4 0.6,-2.8 1.3,-4.1 1.1,-1.7 3,-2.7 5,-2.7 1.7,0 3.4,0.8 4.3,2.3 0.8,1.4 1.3,2.9 1.3,4.5 z m 48.9,16.5 v -14.2 c -0.1,-5.1 -0.1,-8 -1.7,-10.3 -0.6,-1 -1.3,-1.8 -2.3,-2.4 -1.6,-0.9 -3.4,-1.4 -5.2,-1.4 -2,0 -3.9,0.5 -5.6,1.5 -1,0.5 -1.8,1.2 -2.6,2 -0.3,0.5 -0.7,0.8 -1,1.2 v -4.3 h -6.6 c 0.1,2.5 0.1,4.2 0.1,6.7 v 21.1 h 7 v -13 c 0,-3.3 0.2,-6.2 2.7,-8.1 0.9,-0.9 2.2,-1.3 3.5,-1.2 0.7,0 1.4,0.1 1.9,0.5 0.9,0.4 1.6,1.1 2.1,1.9 0.8,2.1 1.1,4.3 0.9,6.5 v 13.4 z"
   id="path5"
   style="fill:#ffffff" />&#10;</g>&#10;</svg>
