<?xml version="1.0" encoding="UTF-8" standalone="no"?>
<svg
   role="img"
   viewBox="0 0 4945.9355 1620"
   version="1.1"
   id="svg1"
   sodipodi:docname="Zoho 2.svg"
   width="4945.9355"
   height="1620"
   inkscape:version="1.3 (0e150ed, 2023-07-21)"
   xmlns:inkscape="http://www.inkscape.org/namespaces/inkscape"
   xmlns:sodipodi="http://sodipodi.sourceforge.net/DTD/sodipodi-0.dtd"
   xmlns="http://www.w3.org/2000/svg"
   xmlns:svg="http://www.w3.org/2000/svg">
  <defs
     id="defs1" />
  <sodipodi:namedview
     id="namedview1"
     pagecolor="#505050"
     bordercolor="#ffffff"
     borderopacity="1"
     inkscape:showpageshadow="0"
     inkscape:pageopacity="0"
     inkscape:pagecheckerboard="1"
     inkscape:deskcolor="#505050"
     inkscape:zoom="0.076822917"
     inkscape:cx="1763.7966"
     inkscape:cy="950.23728"
     inkscape:window-width="1312"
     inkscape:window-height="431"
     inkscape:window-x="0"
     inkscape:window-y="25"
     inkscape:window-maximized="0"
     inkscape:current-layer="svg1" />
  <title
     id="title1">Zoho</title>
  <path
     d="m 4088.228,1294.3926 c -41.8344,-50.2837 -63.0607,-119.3207 -63.0607,-207.9354 0,-90.2633 21.2263,-160.53683 62.8546,-211.02659 41.6283,-50.69584 98.3005,-75.83768 171.6652,-75.83768 72.7464,0 128.8004,25.14184 170.6347,75.83768 41.6283,50.48976 62.8546,120.76329 62.8546,211.02659 0,88.2025 -21.2263,157.2395 -62.8546,207.7293 -41.8343,50.2837 -97.8883,75.4255 -170.6347,75.4255 -72.9526,0 -129.4187,-24.9358 -171.4591,-75.2194 z M 3767.5665,526.32998 H 4783.9562 V 1620 H 3767.5665 v -239.6718 l 30.4999,-85.3174 a 35.033711,35.033711 0 0 0 2.0608,-17.3108 l -32.5607,-250.1819 z m 65.5336,559.92112 c 0,63.2668 10.5101,122.2058 31.9425,176.6111 21.4324,54.6114 52.9627,103.6586 94.7971,146.9355 39.1553,40.3918 84.0809,71.0979 134.3646,91.7059 50.4898,20.6081 105.7194,30.9121 165.6888,30.9121 57.7026,0 112.1079,-10.304 162.3916,-30.9121 50.2837,-20.608 95.8275,-51.3141 136.2193,-91.7059 42.2465,-43.2769 74.189,-92.118 95.8275,-146.5233 21.6385,-54.4053 32.3547,-113.3444 32.3547,-177.0233 0,-63.4728 -10.7162,-122.41189 -32.3547,-176.61111 A 434.83017,434.83017 0 0 0 4558.504,763.94097 c -40.3918,-41.21613 -85.7295,-72.12822 -136.0132,-93.14845 a 419.78629,419.78629 0 0 0 -162.8037,-31.32426 402.47551,402.47551 0 0 0 -300.0535,124.47271 421.22885,421.22885 0 0 0 -94.7971,145.08078 482.22872,482.22872 0 0 0 -31.7364,177.22935 z M 4857.321,503.45503 V 1568.0677 l 88.6146,-88.6147 V 401.03295 Z M 3917.5932,340.44524 3814.1407,453.17135 H 4803.74 l 98.5065,-113.75652 -984.4472,1.03041 z m -410.5127,89.02684 62.4425,-179.29017 -989.1872,137.86796 -12.983,43.27693 30.9121,122.20583 z m 64.7093,37.09451 49.2533,346.62766 77.0742,543.43465 28.027,-78.3106 -118.7025,-914.17379 z m -1044.4167,236.78667 19.9898,8.86147 -398.766,904.90017 -882.0252,-397.7357 398.56,-904.90013 862.2414,388.66811 z M 2337.1607,930.8663 c 0,-53.99313 -9.4797,-106.74978 -28.6452,-158.6821 -20.1959,-54.81745 -48.8412,-102.00992 -86.1418,-141.16525 -37.3006,-39.15532 -82.4322,-70.2735 -135.601,-92.73629 a 405.7728,405.7728 0 0 0 -159.9186,-33.59114 h -2.473 a 397.73566,397.73566 0 0 0 -161.5672,36.27019 c -55.6418,24.11144 -104.0707,58.11474 -145.0808,101.59776 -41.2161,43.27694 -74.6012,95.62142 -100.5673,156.6213 a 518.49892,518.49892 0 0 0 -42.6587,201.13473 c 0,53.1688 9.0675,105.1011 27.2026,156.2091 a 389.49243,389.49243 0 0 0 224.0097,232.8712 c 52.1384,22.2567 105.3072,33.385 159.0942,33.385 h 1.4426 c 54.1992,-0.4121 107.9863,-11.9527 161.1551,-34.8276 a 459.55985,459.55985 0 0 0 146.5233,-102.8343 c 41.6283,-43.2769 75.2195,-95.6214 100.9795,-156.2091 a 511.08002,511.08002 0 0 0 42.2466,-198.0435 z m 1235.0413,59.76339 69.037,486.35031 -984.4472,138.2801 -104.0708,-733.64707 76.2499,-173.10775 c 0.4121,-0.41216 0,-1.0304 0,-1.44257 a 36.064114,36.064114 0 0 0 2.0608,-22.25671 l -14.8378,-59.76338 886.765,-120.96935 69.2431,486.35034 z m -111.9018,405.97891 a 180.11449,180.11449 0 0 0 -2.0608,-26.1723 L 3354.3748,663.16754 c -4.7399,-32.56075 -15.8682,-57.29043 -33.7973,-73.5708 a 76.249841,76.249841 0 0 0 -52.7566,-19.37158 110.66531,110.66531 0 0 0 -16.2804,1.23649 82.020099,82.020099 0 0 0 -61.2059,37.50667 101.80384,101.80384 0 0 0 -14.0135,54.61138 c 0,8.03714 0.6182,16.48645 2.0608,25.34792 l 38.5371,272.02646 -303.969,44.71952 -38.5371,-272.02648 a 120.76326,120.76326 0 0 0 -33.385,-72.74647 73.982954,73.982954 0 0 0 -52.1384,-20.60807 102.216,102.216 0 0 0 -14.6318,1.23649 86.141712,86.141712 0 0 0 -63.6789,37.09451 98.918713,98.918713 0 0 0 -14.2196,54.81746 164.86452,164.86452 0 0 0 2.0608,25.96616 l 104.0708,707.4749 c 4.7398,32.5607 16.0743,57.2904 34.8276,73.1586 14.4257,12.5709 32.9729,18.9594 53.581,18.7533 a 121.58758,121.58758 0 0 0 17.929,-1.2364 77.280244,77.280244 0 0 0 58.5269,-37.5067 103.86465,103.86465 0 0 0 12.9831,-53.1688 175.37463,175.37463 0 0 0 -2.0608,-25.7601 l -42.4526,-279.6514 303.9689,-44.5135 42.4526,279.4454 a 115.40516,115.40516 0 0 0 34.4155,72.7465 78.310648,78.310648 0 0 0 53.3749,19.3715 108.19234,108.19234 0 0 0 16.2804,-1.2364 80.783615,80.783615 0 0 0 60.5877,-37.0946 101.39168,101.39168 0 0 0 13.3952,-53.5809 z M 2541.5927,629.16423 2484.5083,401.85727 1606.1926,0 l 70.6857,239.25964 864.7144,390.11067 z M 1607.4291,263.37107 1541.6894,41.628292 1230.7136,779.80918 l 37.9189,252.65492 z m 414.2221,426.99911 a 230.81033,230.81033 0 0 0 -90.2633,-19.78374 197.21918,197.21918 0 0 0 -96.6519,25.76008 c -58.3208,32.35466 -106.1315,91.08765 -142.8139,177.22936 a 400.20862,400.20862 0 0 0 -35.6519,154.97262 c 0,23.9054 3.0912,46.5743 9.0675,68.0066 17.9291,64.2972 59.3513,109.635 125.7092,138.0741 30.7061,12.9831 60.3817,19.3716 89.233,19.3716 a 198.24959,198.24959 0 0 0 96.6518,-25.554 c 58.3208,-32.1486 105.5133,-89.8512 141.3713,-174.1382 a 412.1613,412.1613 0 0 0 36.6824,-159.09425 c 0,-23.28711 -2.8852,-45.54382 -8.6554,-66.56405 -17.5169,-64.50324 -58.5269,-110.04707 -124.4727,-138.07404 z M 1026.2816,756.72815 1133.0314,1459.4632 156.41521,1612.375 0,654.30607 806.18751,530.86376 987.95064,503.04287 1026.4877,756.72815 Z M 923.24132,1379.916 a 99.949116,99.949116 0 0 0 -1.44257,-17.3107 75.219438,75.219438 0 0 0 -16.07429,-36.4763 73.570793,73.570793 0 0 0 -32.9729,-21.8446 154.56049,154.56049 0 0 0 -50.69584,-7.2128 c -18.54726,0 -39.97965,2.0608 -64.09108,6.1824 l -276.76632,47.3986 c 2.88513,-21.4324 13.39524,-49.4594 32.14858,-83.6688 a 1102.5315,1102.5315 0 0 1 92.32413,-137.6618 l 31.94251,-42.8648 c 5.15201,-6.3885 12.57091,-16.0743 22.05062,-28.8513 63.47285,-83.0505 102.62817,-150.64495 117.46598,-203.81376 a 426.58695,426.58695 0 0 0 16.48645,-115.81733 c 0,-21.84455 -1.64865,-43.27693 -5.3581,-64.70932 a 176.19896,176.19896 0 0 0 -14.42564,-48.22287 68.212696,68.212696 0 0 0 -24.31752,-28.8513 92.942374,92.942374 0 0 0 -48.01679,-9.89187 c -17.1047,0 -37.50668,2.06081 -61.61812,6.18242 l -319.83717,54.81746 c -38.74316,6.59458 -67.38837,18.13509 -85.72955,35.03371 a 68.006615,68.006615 0 0 0 -21.84455,51.52016 90.675487,90.675487 0 0 0 1.44257,16.48645 c 4.53377,27.20265 18.54725,47.19247 41.42221,57.29042 a 117.46597,117.46597 0 0 0 48.84111,9.06755 c 12.98308,0 27.20265,-1.44256 42.6587,-4.12161 l 267.90484,-45.13166 a 143.22605,143.22605 0 0 1 -7.83106,63.26676 c -8.24323,22.25671 -28.02697,53.78705 -59.76339,94.17885 L 505.928,976.20405 C 433.79977,1063.5822 382.27961,1138.1834 350.74927,1200.2137 a 484.28953,484.28953 0 0 0 -45.95599,126.3275 348.2763,348.2763 0 0 0 -7.4189,69.4491 c 0,16.0743 1.23648,31.3243 3.70945,46.3682 a 189.5942,189.5942 0 0 0 16.07429,52.9627 69.449179,69.449179 0 0 0 27.40873,30.4999 c 10.30403,5.7703 25.76008,8.0372 46.98639,8.2433 26.79048,0 62.8546,-4.1216 108.39842,-11.9527 l 290.36764,-49.4594 c 51.52016,-9.0675 87.17211,-21.2263 107.78018,-38.331 a 67.388373,67.388373 0 0 0 25.14184,-54.4053 z m 136.63148,-940.34597 -4.1216,22.46279 123.4423,812.78208 28.8513,-150.4389 -121.9998,-819.37664 -25.76,134.77675 z M 1044.8289,131.06729 62.442437,288.51291 4.121613,579.70487 987.53848,429.266 1044.6228,131.27337 Z"
     id="path1"
     style="stroke-width:206.081;fill:#ffffff" />
</svg>
